<svg width="12" height="12" viewBox="0 0 12 12" fill="none" xmlns="http://www.w3.org/2000/svg">
<path d="M11.4 0H8.8056H0.6C0.2688 0 0 0.2688 0 0.6V11.4C0 11.7312 0.2688 12 0.6 12H11.4C11.73 12 12 11.7312 12 11.4V1.6488V0.6V0H11.4ZM6.7584 9.7128H3.51V8.5812H6.7584C7.4388 8.5812 7.7736 8.2332 7.7736 7.566C7.7736 6.8856 7.44 6.5652 6.7584 6.5652H5.2788C3.8436 6.5652 3.1332 5.8548 3.1332 4.4184C3.1332 2.982 3.8436 2.2872 5.2788 2.2872H8.5764V3.42H5.2788C4.5972 3.42 4.2636 3.7392 4.2636 4.4196C4.2636 5.0868 4.5972 5.4348 5.2788 5.4348H6.7584C8.1936 5.4348 8.904 6.1452 8.904 7.566C8.904 9.0024 8.1936 9.7128 6.7584 9.7128Z" fill="#3E424B" fill-opacity="0.75"/>
</svg>
