<svg width="26" height="30" viewBox="0 0 26 30" fill="none" xmlns="http://www.w3.org/2000/svg">
<path d="M6.59029 3.53103L6.59011 3.53083L6.58422 3.53673C4.81281 5.31276 3.92955 7.75201 3.92955 10.1875C3.92955 12.6195 4.81077 15.0621 6.58715 16.6225L7.02059 17.057L7.3095 17.3467C5.84391 17.8084 4.58414 18.667 3.52968 19.7242C1.98018 21.2778 0.875 23.7153 0.875 26.1563V27.9063C0.875 28.2627 0.994039 28.5695 1.2115 28.7875C1.42898 29.0055 1.73513 29.125 2.09091 29.125H23.9091C24.2649 29.125 24.571 29.0055 24.7885 28.7875C25.006 28.5695 25.125 28.2627 25.125 27.9063V26.1563C25.125 23.7153 24.0198 21.2778 22.4703 19.7242C21.4334 18.6846 20.1978 17.837 18.7633 17.37C19.1244 17.1305 19.4531 16.8009 19.6294 16.6241L19.634 16.6195C21.1823 15.0672 22.2886 12.8488 22.2886 10.1875C22.2886 7.52422 21.1807 5.30621 19.4158 3.53673C17.8663 1.98319 15.4349 0.875 13 0.875C10.5611 0.875 8.35112 1.9863 6.59029 3.53103ZM13 3.3125C14.9347 3.3125 16.6469 3.95841 17.9297 5.24452C19.2125 6.53066 19.8568 8.24747 19.8568 10.1875C19.8568 11.9049 19.2152 13.6207 17.9337 14.9077C16.6403 15.987 14.9239 16.8438 13 16.8438C11.2885 16.8438 9.57508 16.2012 8.28886 15.1301C7.21405 13.8339 6.36136 12.1146 6.36136 10.1875C6.36136 8.24747 7.0057 6.53066 8.2885 5.24452C9.57264 3.95704 11.2856 3.3125 13 3.3125ZM13 19.2813H16.2727C17.9757 19.2813 19.6891 20.1353 20.9802 21.428C22.0599 22.7281 22.9114 24.2306 22.9114 26.1563V26.6875H3.30682V26.1563C3.30682 24.2182 3.94982 22.503 5.22997 21.2173C6.52673 20.1347 8.0251 19.2813 9.94545 19.2813H13Z" fill="#5ADFFC" stroke="#5ADFFC" stroke-width="0.25"/>
</svg>
