<svg width="54" height="52" viewBox="0 0 54 52" fill="none" xmlns="http://www.w3.org/2000/svg">
<path d="M40.7358 19.0611V18.0611H39.7358L39.7358 19.0611L40.7358 19.0611ZM13.2641 19.7531V20.7531H14.1632L14.2585 19.8591L13.2641 19.7531ZM40.7359 22.3826H41.7359V22.3826L40.7359 22.3826ZM34.6388 37.7449L33.9112 37.0589L33.6388 37.3478V37.7449H34.6388ZM19.3612 40.3745L20.3612 40.3745V40.3745H19.3612ZM19.3612 37.8141H20.3612V37.417L20.0888 37.1281L19.3612 37.8141ZM19.0108 2.52239L18.6817 1.57809L18.6637 1.58436L18.646 1.59131L19.0108 2.52239ZM34.9191 2.52239L35.279 1.58939L35.2681 1.58517L35.2571 1.58122L34.9191 2.52239ZM42.2776 19.0611V20.0611H43.2776V19.0611H42.2776ZM40.6658 19.0611L39.6709 19.1618L39.7619 20.0611H40.6658V19.0611ZM18.31 11.1723L18.8598 10.3371L17.8411 9.66643L17.3831 10.7969L18.31 11.1723ZM14.7359 15.1167L15.1032 16.0468L15.1335 16.0348L15.1629 16.0209L14.7359 15.1167ZM14.035 15.9471L14.9934 16.2326L15.0062 16.1896L15.0151 16.1456L14.035 15.9471ZM27.1402 33.1777V32.1777H26.1402V33.1777H27.1402ZM30.9946 33.1777H31.9946V32.1777H30.9946V33.1777ZM30.9946 34.4925V35.4925H31.9946V34.4925H30.9946ZM27.1402 34.4925H26.1402V35.4925H27.1402V34.4925ZM50.4771 47.5712L50.9811 46.7075L50.9138 46.6683L50.8414 46.6399L50.4771 47.5712ZM3.52291 47.5712L3.15863 46.6399L3.08616 46.6683L3.01895 46.7075L3.52291 47.5712ZM19.3612 40.9281L18.3612 40.9281L18.3612 41.4354L18.7706 41.7351L19.3612 40.9281ZM18.0296 47.7096H17.0296V49.0957L18.345 48.6586L18.0296 47.7096ZM18.0296 40.3745V39.3745H17.0296V40.3745H18.0296ZM34.6388 40.9281L35.2249 41.7383L35.6388 41.4389V40.9281H34.6388ZM35.9703 47.7096L35.6577 48.6595L36.9703 49.0915V47.7096H35.9703ZM35.9703 40.3745H36.9703V39.3745H35.9703V40.3745ZM34.6388 40.3745V39.3745H33.6388V40.3745H34.6388ZM40.7358 20.0611H43.0485V18.0611H40.7358V20.0611ZM43.0485 20.0611C43.4758 20.0611 43.7305 20.3715 43.7305 20.6526H45.7305C45.7305 19.1346 44.4433 18.0611 43.0485 18.0611V20.0611ZM43.7305 20.6526V25.3582H45.7305V20.6526H43.7305ZM43.7305 25.3582C43.7305 25.6394 43.4758 25.9498 43.0485 25.9498V27.9498C44.4433 27.9498 45.7305 26.8762 45.7305 25.3582H43.7305ZM43.0485 25.9498H40.2453V27.9498H43.0485V25.9498ZM13.2641 18.7531C11.0673 18.7531 9.39083 20.7627 9.39083 23.0054H11.3908C11.3908 21.6498 12.3775 20.7531 13.2641 20.7531V18.7531ZM9.39083 23.0054C9.39083 25.2145 10.9676 27.2578 13.1941 27.2578V25.2578C12.337 25.2578 11.3908 24.3948 11.3908 23.0054H9.39083ZM13.1941 27.2578H13.6145V25.2578H13.1941V27.2578ZM39.7358 19.0611L39.7359 22.3826L41.7359 22.3826L41.7358 19.0611L39.7358 19.0611ZM39.7359 22.3826C39.7359 28.0014 37.5263 33.2249 33.9112 37.0589L35.3664 38.4309C39.3201 34.2378 41.7359 28.5278 41.7359 22.3826H39.7359ZM33.6388 37.7449V40.3053H35.6388V37.7449H33.6388ZM20.3612 40.3745V37.8141H18.3612V40.3745H20.3612ZM20.0888 37.1281C16.4737 33.2941 14.2642 28.0706 14.2642 22.4518H12.2642C12.2642 28.597 14.68 34.307 18.6336 38.5001L20.0888 37.1281ZM14.2642 22.4518V19.8223H12.2642V22.4518H14.2642ZM12.6523 13.2483C12.6523 8.95845 15.3397 5.03488 19.3756 3.45346L18.646 1.59131C13.8517 3.46987 10.6523 8.12703 10.6523 13.2483H12.6523ZM19.3399 3.46669C21.6697 2.65475 24.2135 2 27 2V0C23.8997 0 21.1174 0.729243 18.6817 1.57809L19.3399 3.46669ZM27 2C29.7181 2 32.3316 2.65579 34.5812 3.46356L35.2571 1.58122C32.8814 0.728199 30.0285 0 27 0V2ZM34.5593 3.45539C38.6539 5.03473 41.2776 8.95096 41.2776 13.2483H43.2776C43.2776 8.13453 40.1548 3.47002 35.279 1.58939L34.5593 3.45539ZM42.2776 18.0611H40.6658V20.0611H42.2776V18.0611ZM41.6607 18.9603C41.5842 18.2052 41.3446 17.3059 41.2254 16.7174L39.2652 17.1144C39.4263 17.9098 39.6072 18.5329 39.6709 19.1618L41.6607 18.9603ZM41.2254 16.7174C40.9714 15.4635 39.8454 14.8087 38.7736 14.8087V16.8087C38.9301 16.8087 39.0541 16.8555 39.1332 16.9127C39.2054 16.965 39.248 17.0293 39.2652 17.1144L41.2254 16.7174ZM38.7736 14.8087C38.7733 14.8087 38.773 14.8087 38.7728 14.8087C38.7725 14.8087 38.7722 14.8087 38.7719 14.8087C38.7717 14.8087 38.7714 14.8087 38.7711 14.8087C38.7709 14.8087 38.7706 14.8087 38.7703 14.8087C38.77 14.8087 38.7698 14.8087 38.7695 14.8087C38.7692 14.8087 38.7689 14.8087 38.7687 14.8087C38.7684 14.8087 38.7681 14.8087 38.7678 14.8087C38.7676 14.8087 38.7673 14.8087 38.767 14.8087C38.7668 14.8087 38.7665 14.8087 38.7662 14.8087C38.7659 14.8087 38.7657 14.8087 38.7654 14.8087C38.7651 14.8087 38.7648 14.8087 38.7646 14.8087C38.7643 14.8087 38.764 14.8087 38.7637 14.8087C38.7635 14.8087 38.7632 14.8087 38.7629 14.8087C38.7626 14.8087 38.7624 14.8087 38.7621 14.8087C38.7618 14.8087 38.7615 14.8087 38.7613 14.8087C38.761 14.8087 38.7607 14.8087 38.7605 14.8087C38.7602 14.8087 38.7599 14.8087 38.7596 14.8087C38.7594 14.8087 38.7591 14.8087 38.7588 14.8087C38.7585 14.8087 38.7583 14.8087 38.758 14.8087C38.7577 14.8087 38.7574 14.8087 38.7572 14.8087C38.7569 14.8087 38.7566 14.8087 38.7563 14.8087C38.7561 14.8087 38.7558 14.8087 38.7555 14.8087C38.7552 14.8087 38.755 14.8087 38.7547 14.8087C38.7544 14.8087 38.7542 14.8087 38.7539 14.8087C38.7536 14.8087 38.7533 14.8087 38.7531 14.8087C38.7528 14.8087 38.7525 14.8087 38.7522 14.8087C38.752 14.8087 38.7517 14.8087 38.7514 14.8087C38.7511 14.8087 38.7509 14.8087 38.7506 14.8087C38.7503 14.8087 38.75 14.8087 38.7498 14.8087C38.7495 14.8087 38.7492 14.8087 38.7489 14.8087C38.7487 14.8087 38.7484 14.8087 38.7481 14.8087C38.7478 14.8087 38.7476 14.8087 38.7473 14.8087C38.747 14.8087 38.7467 14.8087 38.7465 14.8087C38.7462 14.8087 38.7459 14.8087 38.7457 14.8087C38.7454 14.8087 38.7451 14.8087 38.7448 14.8087C38.7446 14.8087 38.7443 14.8087 38.744 14.8087C38.7437 14.8087 38.7435 14.8087 38.7432 14.8087C38.7429 14.8087 38.7426 14.8087 38.7424 14.8087C38.7421 14.8087 38.7418 14.8087 38.7415 14.8087C38.7413 14.8087 38.741 14.8087 38.7407 14.8087C38.7404 14.8087 38.7402 14.8087 38.7399 14.8087C38.7396 14.8087 38.7393 14.8087 38.7391 14.8087C38.7388 14.8087 38.7385 14.8087 38.7382 14.8087C38.738 14.8087 38.7377 14.8087 38.7374 14.8087C38.7371 14.8087 38.7369 14.8087 38.7366 14.8087C38.7363 14.8087 38.736 14.8087 38.7358 14.8087C38.7355 14.8087 38.7352 14.8087 38.7349 14.8087C38.7347 14.8087 38.7344 14.8087 38.7341 14.8087C38.7338 14.8087 38.7336 14.8087 38.7333 14.8087C38.733 14.8087 38.7327 14.8087 38.7325 14.8087C38.7322 14.8087 38.7319 14.8087 38.7316 14.8087C38.7314 14.8087 38.7311 14.8087 38.7308 14.8087C38.7305 14.8087 38.7303 14.8087 38.73 14.8087C38.7297 14.8087 38.7294 14.8087 38.7292 14.8087C38.7289 14.8087 38.7286 14.8087 38.7283 14.8087C38.7281 14.8087 38.7278 14.8087 38.7275 14.8087C38.7272 14.8087 38.727 14.8087 38.7267 14.8087C38.7264 14.8087 38.7261 14.8087 38.7259 14.8087C38.7256 14.8087 38.7253 14.8087 38.725 14.8087C38.7248 14.8087 38.7245 14.8087 38.7242 14.8087C38.7239 14.8087 38.7237 14.8087 38.7234 14.8087C38.7231 14.8087 38.7228 14.8087 38.7225 14.8087C38.7223 14.8087 38.722 14.8087 38.7217 14.8087C38.7214 14.8087 38.7212 14.8087 38.7209 14.8087C38.7206 14.8087 38.7203 14.8087 38.7201 14.8087C38.7198 14.8087 38.7195 14.8087 38.7192 14.8087C38.719 14.8087 38.7187 14.8087 38.7184 14.8087C38.7181 14.8087 38.7179 14.8087 38.7176 14.8087C38.7173 14.8087 38.717 14.8087 38.7168 14.8087C38.7165 14.8087 38.7162 14.8087 38.7159 14.8087C38.7156 14.8087 38.7154 14.8087 38.7151 14.8087C38.7148 14.8087 38.7145 14.8087 38.7143 14.8087C38.714 14.8087 38.7137 14.8087 38.7134 14.8087C38.7132 14.8087 38.7129 14.8087 38.7126 14.8087C38.7123 14.8087 38.7121 14.8087 38.7118 14.8087C38.7115 14.8087 38.7112 14.8087 38.7109 14.8087C38.7107 14.8087 38.7104 14.8087 38.7101 14.8087C38.7098 14.8087 38.7096 14.8087 38.7093 14.8087C38.709 14.8087 38.7087 14.8087 38.7085 14.8087C38.7082 14.8087 38.7079 14.8087 38.7076 14.8087C38.7073 14.8087 38.7071 14.8087 38.7068 14.8087C38.7065 14.8087 38.7062 14.8087 38.706 14.8087C38.7057 14.8087 38.7054 14.8087 38.7051 14.8087C38.7049 14.8087 38.7046 14.8087 38.7043 14.8087C38.704 14.8087 38.7037 14.8087 38.7035 14.8087C38.7032 14.8087 38.7029 14.8087 38.7026 14.8087C38.7024 14.8087 38.7021 14.8087 38.7018 14.8087C38.7015 14.8087 38.7012 14.8087 38.701 14.8087C38.7007 14.8087 38.7004 14.8087 38.7001 14.8087C38.6999 14.8087 38.6996 14.8087 38.6993 14.8087C38.699 14.8087 38.6987 14.8087 38.6985 14.8087C38.6982 14.8087 38.6979 14.8087 38.6976 14.8087C38.6974 14.8087 38.6971 14.8087 38.6968 14.8087C38.6965 14.8087 38.6962 14.8087 38.696 14.8087C38.6957 14.8087 38.6954 14.8087 38.6951 14.8087C38.6948 14.8087 38.6946 14.8087 38.6943 14.8087C38.694 14.8087 38.6937 14.8087 38.6935 14.8087C38.6932 14.8087 38.6929 14.8087 38.6926 14.8087C38.6923 14.8087 38.6921 14.8087 38.6918 14.8087C38.6915 14.8087 38.6912 14.8087 38.6909 14.8087C38.6907 14.8087 38.6904 14.8087 38.6901 14.8087C38.6898 14.8087 38.6895 14.8087 38.6893 14.8087C38.689 14.8087 38.6887 14.8087 38.6884 14.8087C38.6882 14.8087 38.6879 14.8087 38.6876 14.8087C38.6873 14.8087 38.687 14.8087 38.6868 14.8087C38.6865 14.8087 38.6862 14.8087 38.6859 14.8087C38.6856 14.8087 38.6854 14.8087 38.6851 14.8087C38.6848 14.8087 38.6845 14.8087 38.6842 14.8087C38.684 14.8087 38.6837 14.8087 38.6834 14.8087C38.6831 14.8087 38.6828 14.8087 38.6826 14.8087C38.6823 14.8087 38.682 14.8087 38.6817 14.8087C38.6814 14.8087 38.6812 14.8087 38.6809 14.8087C38.6806 14.8087 38.6803 14.8087 38.68 14.8087C38.6798 14.8087 38.6795 14.8087 38.6792 14.8087C38.6789 14.8087 38.6786 14.8087 38.6784 14.8087C38.6781 14.8087 38.6778 14.8087 38.6775 14.8087C38.6772 14.8087 38.6769 14.8087 38.6767 14.8087C38.6764 14.8087 38.6761 14.8087 38.6758 14.8087C38.6755 14.8087 38.6753 14.8087 38.675 14.8087C38.6747 14.8087 38.6744 14.8087 38.6741 14.8087C38.6739 14.8087 38.6736 14.8087 38.6733 14.8087C38.673 14.8087 38.6727 14.8087 38.6725 14.8087C38.6722 14.8087 38.6719 14.8087 38.6716 14.8087C38.6713 14.8087 38.671 14.8087 38.6708 14.8087C38.6705 14.8087 38.6702 14.8087 38.6699 14.8087C38.6696 14.8087 38.6694 14.8087 38.6691 14.8087C38.6688 14.8087 38.6685 14.8087 38.6682 14.8087C38.6679 14.8087 38.6677 14.8087 38.6674 14.8087C38.6671 14.8087 38.6668 14.8087 38.6665 14.8087C38.6662 14.8087 38.666 14.8087 38.6657 14.8087C38.6654 14.8087 38.6651 14.8087 38.6648 14.8087C38.6646 14.8087 38.6643 14.8087 38.664 14.8087C38.6637 14.8087 38.6634 14.8087 38.6631 14.8087C38.6629 14.8087 38.6626 14.8087 38.6623 14.8087C38.662 14.8087 38.6617 14.8087 38.6614 14.8087C38.6612 14.8087 38.6609 14.8087 38.6606 14.8087C38.6603 14.8087 38.66 14.8087 38.6597 14.8087C38.6595 14.8087 38.6592 14.8087 38.6589 14.8087C38.6586 14.8087 38.6583 14.8087 38.658 14.8087C38.6578 14.8087 38.6575 14.8087 38.6572 14.8087C38.6569 14.8087 38.6566 14.8087 38.6563 14.8087C38.656 14.8087 38.6558 14.8087 38.6555 14.8087C38.6552 14.8087 38.6549 14.8087 38.6546 14.8087C38.6543 14.8087 38.6541 14.8087 38.6538 14.8087C38.6535 14.8087 38.6532 14.8087 38.6529 14.8087C38.6526 14.8087 38.6523 14.8087 38.6521 14.8087C38.6518 14.8087 38.6515 14.8087 38.6512 14.8087C38.6509 14.8087 38.6506 14.8087 38.6504 14.8087C38.6501 14.8087 38.6498 14.8087 38.6495 14.8087C38.6492 14.8087 38.6489 14.8087 38.6486 14.8087C38.6484 14.8087 38.6481 14.8087 38.6478 14.8087C38.6475 14.8087 38.6472 14.8087 38.6469 14.8087C38.6466 14.8087 38.6464 14.8087 38.6461 14.8087C38.6458 14.8087 38.6455 14.8087 38.6452 14.8087C38.6449 14.8087 38.6446 14.8087 38.6444 14.8087C38.6441 14.8087 38.6438 14.8087 38.6435 14.8087C38.6432 14.8087 38.6429 14.8087 38.6426 14.8087C38.6423 14.8087 38.6421 14.8087 38.6418 14.8087C38.6415 14.8087 38.6412 14.8087 38.6409 14.8087C38.6406 14.8087 38.6403 14.8087 38.6401 14.8087C38.6398 14.8087 38.6395 14.8087 38.6392 14.8087C38.6389 14.8087 38.6386 14.8087 38.6383 14.8087C38.638 14.8087 38.6378 14.8087 38.6375 14.8087C38.6372 14.8087 38.6369 14.8087 38.6366 14.8087C38.6363 14.8087 38.636 14.8087 38.6357 14.8087C38.6355 14.8087 38.6352 14.8087 38.6349 14.8087C38.6346 14.8087 38.6343 14.8087 38.634 14.8087C38.6337 14.8087 38.6334 14.8087 38.6331 14.8087C38.6329 14.8087 38.6326 14.8087 38.6323 14.8087C38.632 14.8087 38.6317 14.8087 38.6314 14.8087C38.6311 14.8087 38.6308 14.8087 38.6305 14.8087C38.6303 14.8087 38.63 14.8087 38.6297 14.8087C38.6294 14.8087 38.6291 14.8087 38.6288 14.8087C38.6285 14.8087 38.6282 14.8087 38.6279 14.8087C38.6277 14.8087 38.6274 14.8087 38.6271 14.8087C38.6268 14.8087 38.6265 14.8087 38.6262 14.8087C38.6259 14.8087 38.6256 14.8087 38.6253 14.8087C38.625 14.8087 38.6248 14.8087 38.6245 14.8087C38.6242 14.8087 38.6239 14.8087 38.6236 14.8087C38.6233 14.8087 38.623 14.8087 38.6227 14.8087C38.6224 14.8087 38.6221 14.8087 38.6218 14.8087C38.6216 14.8087 38.6213 14.8087 38.621 14.8087C38.6207 14.8087 38.6204 14.8087 38.6201 14.8087C38.6198 14.8087 38.6195 14.8087 38.6192 14.8087C38.6189 14.8087 38.6186 14.8087 38.6184 14.8087C38.6181 14.8087 38.6178 14.8087 38.6175 14.8087C38.6172 14.8087 38.6169 14.8087 38.6166 14.8087C38.6163 14.8087 38.616 14.8087 38.6157 14.8087C38.6154 14.8087 38.6151 14.8087 38.6148 14.8087C38.6146 14.8087 38.6143 14.8087 38.614 14.8087C38.6137 14.8087 38.6134 14.8087 38.6131 14.8087C38.6128 14.8087 38.6125 14.8087 38.6122 14.8087C38.6119 14.8087 38.6116 14.8087 38.6113 14.8087C38.611 14.8087 38.6107 14.8087 38.6105 14.8087C38.6102 14.8087 38.6099 14.8087 38.6096 14.8087C38.6093 14.8087 38.609 14.8087 38.6087 14.8087C38.6084 14.8087 38.6081 14.8087 38.6078 14.8087C38.6075 14.8087 38.6072 14.8087 38.6069 14.8087C38.6066 14.8087 38.6063 14.8087 38.606 14.8087C38.6058 14.8087 38.6055 14.8087 38.6052 14.8087C38.6049 14.8087 38.6046 14.8087 38.6043 14.8087C38.604 14.8087 38.6037 14.8087 38.6034 14.8087C38.6031 14.8087 38.6028 14.8087 38.6025 14.8087C38.6022 14.8087 38.6019 14.8087 38.6016 14.8087C38.6013 14.8087 38.601 14.8087 38.6007 14.8087C38.6004 14.8087 38.6001 14.8087 38.5998 14.8087C38.5996 14.8087 38.5993 14.8087 38.599 14.8087C38.5987 14.8087 38.5984 14.8087 38.5981 14.8087C38.5978 14.8087 38.5975 14.8087 38.5972 14.8087C38.5969 14.8087 38.5966 14.8087 38.5963 14.8087C38.596 14.8087 38.5957 14.8087 38.5954 14.8087C38.5951 14.8087 38.5948 14.8087 38.5945 14.8087C38.5942 14.8087 38.5939 14.8087 38.5936 14.8087C38.5933 14.8087 38.593 14.8087 38.5927 14.8087C38.5924 14.8087 38.5921 14.8087 38.5918 14.8087C38.5915 14.8087 38.5912 14.8087 38.5909 14.8087C38.5906 14.8087 38.5903 14.8087 38.59 14.8087C38.5897 14.8087 38.5894 14.8087 38.5891 14.8087C38.5888 14.8087 38.5886 14.8087 38.5883 14.8087C38.588 14.8087 38.5877 14.8087 38.5874 14.8087C38.5871 14.8087 38.5868 14.8087 38.5865 14.8087C38.5862 14.8087 38.5859 14.8087 38.5856 14.8087C38.5853 14.8087 38.585 14.8087 38.5847 14.8087C38.5844 14.8087 38.5841 14.8087 38.5838 14.8087C38.5835 14.8087 38.5832 14.8087 38.5829 14.8087C38.5826 14.8087 38.5823 14.8087 38.582 14.8087C38.5817 14.8087 38.5814 14.8087 38.5811 14.8087C38.5808 14.8087 38.5805 14.8087 38.5802 14.8087C38.5799 14.8087 38.5796 14.8087 38.5793 14.8087C38.579 14.8087 38.5787 14.8087 38.5784 14.8087C38.578 14.8087 38.5777 14.8087 38.5774 14.8087C38.5771 14.8087 38.5768 14.8087 38.5765 14.8087C38.5762 14.8087 38.5759 14.8087 38.5756 14.8087C38.5753 14.8087 38.575 14.8087 38.5747 14.8087C38.5744 14.8087 38.5741 14.8087 38.5738 14.8087C38.5735 14.8087 38.5732 14.8087 38.5729 14.8087C38.5726 14.8087 38.5723 14.8087 38.572 14.8087C38.5717 14.8087 38.5714 14.8087 38.5711 14.8087C38.5708 14.8087 38.5705 14.8087 38.5702 14.8087C38.5699 14.8087 38.5696 14.8087 38.5693 14.8087C38.569 14.8087 38.5687 14.8087 38.5684 14.8087C38.5681 14.8087 38.5678 14.8087 38.5674 14.8087C38.5671 14.8087 38.5668 14.8087 38.5665 14.8087C38.5662 14.8087 38.5659 14.8087 38.5656 14.8087C38.5653 14.8087 38.565 14.8087 38.5647 14.8087C38.5644 14.8087 38.5641 14.8087 38.5638 14.8087C38.5635 14.8087 38.5632 14.8087 38.5629 14.8087C38.5626 14.8087 38.5623 14.8087 38.562 14.8087C38.5616 14.8087 38.5613 14.8087 38.561 14.8087C38.5607 14.8087 38.5604 14.8087 38.5601 14.8087C38.5598 14.8087 38.5595 14.8087 38.5592 14.8087C38.5589 14.8087 38.5586 14.8087 38.5583 14.8087C38.558 14.8087 38.5577 14.8087 38.5574 14.8087C38.557 14.8087 38.5567 14.8087 38.5564 14.8087C38.5561 14.8087 38.5558 14.8087 38.5555 14.8087C38.5552 14.8087 38.5549 14.8087 38.5546 14.8087C38.5543 14.8087 38.554 14.8087 38.5537 14.8087C38.5534 14.8087 38.553 14.8087 38.5527 14.8087C38.5524 14.8087 38.5521 14.8087 38.5518 14.8087C38.5515 14.8087 38.5512 14.8087 38.5509 14.8087C38.5506 14.8087 38.5503 14.8087 38.55 14.8087C38.5496 14.8087 38.5493 14.8087 38.549 14.8087C38.5487 14.8087 38.5484 14.8087 38.5481 14.8087C38.5478 14.8087 38.5475 14.8087 38.5472 14.8087C38.5469 14.8087 38.5466 14.8087 38.5462 14.8087C38.5459 14.8087 38.5456 14.8087 38.5453 14.8087C38.545 14.8087 38.5447 14.8087 38.5444 14.8087C38.5441 14.8087 38.5438 14.8087 38.5434 14.8087C38.5431 14.8087 38.5428 14.8087 38.5425 14.8087C38.5422 14.8087 38.5419 14.8087 38.5416 14.8087C38.5413 14.8087 38.541 14.8087 38.5406 14.8087C38.5403 14.8087 38.54 14.8087 38.5397 14.8087C38.5394 14.8087 38.5391 14.8087 38.5388 14.8087C38.5385 14.8087 38.5381 14.8087 38.5378 14.8087C38.5375 14.8087 38.5372 14.8087 38.5369 14.8087C38.5366 14.8087 38.5363 14.8087 38.5359 14.8087C38.5356 14.8087 38.5353 14.8087 38.535 14.8087C38.5347 14.8087 38.5344 14.8087 38.5341 14.8087C38.5337 14.8087 38.5334 14.8087 38.5331 14.8087C38.5328 14.8087 38.5325 14.8087 38.5322 14.8087C38.5319 14.8087 38.5315 14.8087 38.5312 14.8087C38.5309 14.8087 38.5306 14.8087 38.5303 14.8087C38.53 14.8087 38.5297 14.8087 38.5293 14.8087C38.529 14.8087 38.5287 14.8087 38.5284 14.8087C38.5281 14.8087 38.5278 14.8087 38.5274 14.8087C38.5271 14.8087 38.5268 14.8087 38.5265 14.8087C38.5262 14.8087 38.5259 14.8087 38.5255 14.8087C38.5252 14.8087 38.5249 14.8087 38.5246 14.8087C38.5243 14.8087 38.524 14.8087 38.5236 14.8087C38.5233 14.8087 38.523 14.8087 38.5227 14.8087C38.5224 14.8087 38.5221 14.8087 38.5217 14.8087C38.5214 14.8087 38.5211 14.8087 38.5208 14.8087C38.5205 14.8087 38.5201 14.8087 38.5198 14.8087C38.5195 14.8087 38.5192 14.8087 38.5189 14.8087C38.5186 14.8087 38.5182 14.8087 38.5179 14.8087C38.5176 14.8087 38.5173 14.8087 38.517 14.8087C38.5166 14.8087 38.5163 14.8087 38.516 14.8087C38.5157 14.8087 38.5154 14.8087 38.515 14.8087C38.5147 14.8087 38.5144 14.8087 38.5141 14.8087C38.5138 14.8087 38.5134 14.8087 38.5131 14.8087C38.5128 14.8087 38.5125 14.8087 38.5122 14.8087C38.5118 14.8087 38.5115 14.8087 38.5112 14.8087C38.5109 14.8087 38.5105 14.8087 38.5102 14.8087C38.5099 14.8087 38.5096 14.8087 38.5093 14.8087C38.5089 14.8087 38.5086 14.8087 38.5083 14.8087C38.508 14.8087 38.5076 14.8087 38.5073 14.8087C38.507 14.8087 38.5067 14.8087 38.5064 14.8087C38.506 14.8087 38.5057 14.8087 38.5054 14.8087C38.5051 14.8087 38.5047 14.8087 38.5044 14.8087C38.5041 14.8087 38.5038 14.8087 38.5034 14.8087C38.5031 14.8087 38.5028 14.8087 38.5025 14.8087C38.5021 14.8087 38.5018 14.8087 38.5015 14.8087C38.5012 14.8087 38.5009 14.8087 38.5005 14.8087C38.5002 14.8087 38.4999 14.8087 38.4995 14.8087C38.4992 14.8087 38.4989 14.8087 38.4986 14.8087C38.4982 14.8087 38.4979 14.8087 38.4976 14.8087C38.4973 14.8087 38.4969 14.8087 38.4966 14.8087C38.4963 14.8087 38.496 14.8087 38.4956 14.8087C38.4953 14.8087 38.495 14.8087 38.4947 14.8087C38.4943 14.8087 38.494 14.8087 38.4937 14.8087C38.4934 14.8087 38.493 14.8087 38.4927 14.8087C38.4924 14.8087 38.492 14.8087 38.4917 14.8087C38.4914 14.8087 38.4911 14.8087 38.4907 14.8087C38.4904 14.8087 38.4901 14.8087 38.4897 14.8087C38.4894 14.8087 38.4891 14.8087 38.4888 14.8087C38.4884 14.8087 38.4881 14.8087 38.4878 14.8087C38.4874 14.8087 38.4871 14.8087 38.4868 14.8087C38.4865 14.8087 38.4861 14.8087 38.4858 14.8087C38.4855 14.8087 38.4851 14.8087 38.4848 14.8087C38.4845 14.8087 38.4841 14.8087 38.4838 14.8087C38.4835 14.8087 38.4832 14.8087 38.4828 14.8087C38.4825 14.8087 38.4822 14.8087 38.4818 14.8087C38.4815 14.8087 38.4812 14.8087 38.4808 14.8087C38.4805 14.8087 38.4802 14.8087 38.4798 14.8087C38.4795 14.8087 38.4792 14.8087 38.4788 14.8087C38.4785 14.8087 38.4782 14.8087 38.4778 14.8087C38.4775 14.8087 38.4772 14.8087 38.4768 14.8087C38.4765 14.8087 38.4762 14.8087 38.4758 14.8087C38.4755 14.8087 38.4752 14.8087 38.4748 14.8087C38.4745 14.8087 38.4742 14.8087 38.4738 14.8087C38.4735 14.8087 38.4732 14.8087 38.4728 14.8087C38.4725 14.8087 38.4722 14.8087 38.4718 14.8087C38.4715 14.8087 38.4712 14.8087 38.4708 14.8087C38.4705 14.8087 38.4702 14.8087 38.4698 14.8087C38.4695 14.8087 38.4692 14.8087 38.4688 14.8087C38.4685 14.8087 38.4681 14.8087 38.4678 14.8087C38.4675 14.8087 38.4671 14.8087 38.4668 14.8087C38.4665 14.8087 38.4661 14.8087 38.4658 14.8087C38.4655 14.8087 38.4651 14.8087 38.4648 14.8087C38.4644 14.8087 38.4641 14.8087 38.4638 14.8087C38.4634 14.8087 38.4631 14.8087 38.4627 14.8087C38.4624 14.8087 38.4621 14.8087 38.4617 14.8087C38.4614 14.8087 38.4611 14.8087 38.4607 14.8087C38.4604 14.8087 38.46 14.8087 38.4597 14.8087C38.4594 14.8087 38.459 14.8087 38.4587 14.8087C38.4583 14.8087 38.458 14.8087 38.4577 14.8087C38.4573 14.8087 38.457 14.8087 38.4566 14.8087C38.4563 14.8087 38.456 14.8087 38.4556 14.8087C38.4553 14.8087 38.4549 14.8087 38.4546 14.8087C38.4543 14.8087 38.4539 14.8087 38.4536 14.8087C38.4532 14.8087 38.4529 14.8087 38.4526 14.8087C38.4522 14.8087 38.4519 14.8087 38.4515 14.8087C38.4512 14.8087 38.4508 14.8087 38.4505 14.8087C38.4502 14.8087 38.4498 14.8087 38.4495 14.8087C38.4491 14.8087 38.4488 14.8087 38.4484 14.8087C38.4481 14.8087 38.4478 14.8087 38.4474 14.8087C38.4471 14.8087 38.4467 14.8087 38.4464 14.8087C38.446 14.8087 38.4457 14.8087 38.4453 14.8087C38.445 14.8087 38.4447 14.8087 38.4443 14.8087C38.444 14.8087 38.4436 14.8087 38.4433 14.8087C38.4429 14.8087 38.4426 14.8087 38.4422 14.8087C38.4419 14.8087 38.4415 14.8087 38.4412 14.8087C38.4409 14.8087 38.4405 14.8087 38.4402 14.8087C38.4398 14.8087 38.4395 14.8087 38.4391 14.8087C38.4388 14.8087 38.4384 14.8087 38.4381 14.8087C38.4377 14.8087 38.4374 14.8087 38.437 14.8087C38.4367 14.8087 38.4363 14.8087 38.436 14.8087C38.4356 14.8087 38.4353 14.8087 38.435 14.8087C38.4346 14.8087 38.4343 14.8087 38.4339 14.8087C38.4336 14.8087 38.4332 14.8087 38.4329 14.8087C38.4325 14.8087 38.4322 14.8087 38.4318 14.8087C38.4315 14.8087 38.4311 14.8087 38.4308 14.8087C38.4304 14.8087 38.4301 14.8087 38.4297 14.8087C38.4294 14.8087 38.429 14.8087 38.4287 14.8087C38.4283 14.8087 38.428 14.8087 38.4276 14.8087C38.4273 14.8087 38.4269 14.8087 38.4266 14.8087C38.4262 14.8087 38.4258 14.8087 38.4255 14.8087C38.4251 14.8087 38.4248 14.8087 38.4244 14.8087C38.4241 14.8087 38.4237 14.8087 38.4234 14.8087C38.423 14.8087 38.4227 14.8087 38.4223 14.8087C38.422 14.8087 38.4216 14.8087 38.4213 14.8087C38.4209 14.8087 38.4206 14.8087 38.4202 14.8087C38.4198 14.8087 38.4195 14.8087 38.4191 14.8087C38.4188 14.8087 38.4184 14.8087 38.4181 14.8087C38.4177 14.8087 38.4174 14.8087 38.417 14.8087C38.4167 14.8087 38.4163 14.8087 38.4159 14.8087C38.4156 14.8087 38.4152 14.8087 38.4149 14.8087C38.4145 14.8087 38.4142 14.8087 38.4138 14.8087C38.4135 14.8087 38.4131 14.8087 38.4127 14.8087C38.4124 14.8087 38.412 14.8087 38.4117 14.8087C38.4113 14.8087 38.411 14.8087 38.4106 14.8087C38.4102 14.8087 38.4099 14.8087 38.4095 14.8087C38.4092 14.8087 38.4088 14.8087 38.4084 14.8087C38.4081 14.8087 38.4077 14.8087 38.4074 14.8087C38.407 14.8087 38.4067 14.8087 38.4063 14.8087C38.4059 14.8087 38.4056 14.8087 38.4052 14.8087C38.4049 14.8087 38.4045 14.8087 38.4041 14.8087C38.4038 14.8087 38.4034 14.8087 38.4031 14.8087C38.4027 14.8087 38.4023 14.8087 38.402 14.8087C38.4016 14.8087 38.4012 14.8087 38.4009 14.8087C38.4005 14.8087 38.4002 14.8087 38.3998 14.8087C38.3994 14.8087 38.3991 14.8087 38.3987 14.8087C38.3984 14.8087 38.398 14.8087 38.3976 14.8087C38.3973 14.8087 38.3969 14.8087 38.3965 14.8087C38.3962 14.8087 38.3958 14.8087 38.3954 14.8087C38.3951 14.8087 38.3947 14.8087 38.3944 14.8087C38.394 14.8087 38.3936 14.8087 38.3933 14.8087C38.3929 14.8087 38.3925 14.8087 38.3922 14.8087C38.3918 14.8087 38.3914 14.8087 38.3911 14.8087C38.3907 14.8087 38.3903 14.8087 38.39 14.8087C38.3896 14.8087 38.3892 14.8087 38.3889 14.8087C38.3885 14.8087 38.3881 14.8087 38.3878 14.8087C38.3874 14.8087 38.387 14.8087 38.3867 14.8087C38.3863 14.8087 38.3859 14.8087 38.3856 14.8087C38.3852 14.8087 38.3848 14.8087 38.3845 14.8087C38.3841 14.8087 38.3837 14.8087 38.3834 14.8087C38.383 14.8087 38.3826 14.8087 38.3823 14.8087C38.3819 14.8087 38.3815 14.8087 38.3812 14.8087C38.3808 14.8087 38.3804 14.8087 38.38 14.8087C38.3797 14.8087 38.3793 14.8087 38.3789 14.8087C38.3786 14.8087 38.3782 14.8087 38.3778 14.8087C38.3775 14.8087 38.3771 14.8087 38.3767 14.8087C38.3763 14.8087 38.376 14.8087 38.3756 14.8087C38.3752 14.8087 38.3749 14.8087 38.3745 14.8087C38.3741 14.8087 38.3737 14.8087 38.3734 14.8087C38.373 14.8087 38.3726 14.8087 38.3722 14.8087C38.3719 14.8087 38.3715 14.8087 38.3711 14.8087C38.3708 14.8087 38.3704 14.8087 38.37 14.8087C38.3696 14.8087 38.3693 14.8087 38.3689 14.8087C38.3685 14.8087 38.3681 14.8087 38.3678 14.8087C38.3674 14.8087 38.367 14.8087 38.3666 14.8087C38.3663 14.8087 38.3659 14.8087 38.3655 14.8087C38.3651 14.8087 38.3648 14.8087 38.3644 14.8087C38.364 14.8087 38.3636 14.8087 38.3632 14.8087C38.3629 14.8087 38.3625 14.8087 38.3621 14.8087C38.3617 14.8087 38.3614 14.8087 38.361 14.8087C38.3606 14.8087 38.3602 14.8087 38.3599 14.8087C38.3595 14.8087 38.3591 14.8087 38.3587 14.8087C38.3583 14.8087 38.358 14.8087 38.3576 14.8087C38.3572 14.8087 38.3568 14.8087 38.3564 14.8087C38.3561 14.8087 38.3557 14.8087 38.3553 14.8087C38.3549 14.8087 38.3545 14.8087 38.3542 14.8087C38.3538 14.8087 38.3534 14.8087 38.353 14.8087C38.3526 14.8087 38.3523 14.8087 38.3519 14.8087C38.3515 14.8087 38.3511 14.8087 38.3507 14.8087C38.3503 14.8087 38.35 14.8087 38.3496 14.8087C38.3492 14.8087 38.3488 14.8087 38.3484 14.8087C38.3481 14.8087 38.3477 14.8087 38.3473 14.8087C38.3469 14.8087 38.3465 14.8087 38.3461 14.8087C38.3458 14.8087 38.3454 14.8087 38.345 14.8087C38.3446 14.8087 38.3442 14.8087 38.3438 14.8087C38.3434 14.8087 38.3431 14.8087 38.3427 14.8087C38.3423 14.8087 38.3419 14.8087 38.3415 14.8087C38.3411 14.8087 38.3408 14.8087 38.3404 14.8087C38.34 14.8087 38.3396 14.8087 38.3392 14.8087C38.3388 14.8087 38.3384 14.8087 38.338 14.8087C38.3377 14.8087 38.3373 14.8087 38.3369 14.8087C38.3365 14.8087 38.3361 14.8087 38.3357 14.8087C38.3353 14.8087 38.3349 14.8087 38.3346 14.8087C38.3342 14.8087 38.3338 14.8087 38.3334 14.8087C38.333 14.8087 38.3326 14.8087 38.3322 14.8087C38.3318 14.8087 38.3314 14.8087 38.3311 14.8087C38.3307 14.8087 38.3303 14.8087 38.3299 14.8087C38.3295 14.8087 38.3291 14.8087 38.3287 14.8087C38.3283 14.8087 38.3279 14.8087 38.3275 14.8087C38.3271 14.8087 38.3267 14.8087 38.3264 14.8087C38.326 14.8087 38.3256 14.8087 38.3252 14.8087C38.3248 14.8087 38.3244 14.8087 38.324 14.8087C38.3236 14.8087 38.3232 14.8087 38.3228 14.8087C38.3224 14.8087 38.322 14.8087 38.3216 14.8087C38.3212 14.8087 38.3209 14.8087 38.3205 14.8087C38.3201 14.8087 38.3197 14.8087 38.3193 14.8087C38.3189 14.8087 38.3185 14.8087 38.3181 14.8087C38.3177 14.8087 38.3173 14.8087 38.3169 14.8087C38.3165 14.8087 38.3161 14.8087 38.3157 14.8087C38.3153 14.8087 38.3149 14.8087 38.3145 14.8087C38.3141 14.8087 38.3137 14.8087 38.3133 14.8087C38.3129 14.8087 38.3125 14.8087 38.3121 14.8087C38.3117 14.8087 38.3113 14.8087 38.3109 14.8087C38.3105 14.8087 38.3101 14.8087 38.3097 14.8087C38.3093 14.8087 38.3089 14.8087 38.3085 14.8087C38.3081 14.8087 38.3077 14.8087 38.3073 14.8087C38.3069 14.8087 38.3065 14.8087 38.3061 14.8087C38.3057 14.8087 38.3053 14.8087 38.3049 14.8087C38.3045 14.8087 38.3041 14.8087 38.3037 14.8087C38.3033 14.8087 38.3029 14.8087 38.3025 14.8087C38.3021 14.8087 38.3017 14.8087 38.3013 14.8087C38.3009 14.8087 38.3005 14.8087 38.3001 14.8087C38.2997 14.8087 38.2993 14.8087 38.2989 14.8087C38.2985 14.8087 38.2981 14.8087 38.2977 14.8087C38.2973 14.8087 38.2969 14.8087 38.2965 14.8087C38.2961 14.8087 38.2957 14.8087 38.2953 14.8087C38.2949 14.8087 38.2945 14.8087 38.294 14.8087C38.2936 14.8087 38.2932 14.8087 38.2928 14.8087C38.2924 14.8087 38.292 14.8087 38.2916 14.8087C38.2912 14.8087 38.2908 14.8087 38.2904 14.8087C38.29 14.8087 38.2896 14.8087 38.2892 14.8087C38.2888 14.8087 38.2883 14.8087 38.2879 14.8087C38.2875 14.8087 38.2871 14.8087 38.2867 14.8087C38.2863 14.8087 38.2859 14.8087 38.2855 14.8087C38.2851 14.8087 38.2847 14.8087 38.2843 14.8087C38.2838 14.8087 38.2834 14.8087 38.283 14.8087V16.8087C38.2834 16.8087 38.2838 16.8087 38.2843 16.8087C38.2847 16.8087 38.2851 16.8087 38.2855 16.8087C38.2859 16.8087 38.2863 16.8087 38.2867 16.8087C38.2871 16.8087 38.2875 16.8087 38.2879 16.8087C38.2883 16.8087 38.2888 16.8087 38.2892 16.8087C38.2896 16.8087 38.29 16.8087 38.2904 16.8087C38.2908 16.8087 38.2912 16.8087 38.2916 16.8087C38.292 16.8087 38.2924 16.8087 38.2928 16.8087C38.2932 16.8087 38.2936 16.8087 38.294 16.8087C38.2945 16.8087 38.2949 16.8087 38.2953 16.8087C38.2957 16.8087 38.2961 16.8087 38.2965 16.8087C38.2969 16.8087 38.2973 16.8087 38.2977 16.8087C38.2981 16.8087 38.2985 16.8087 38.2989 16.8087C38.2993 16.8087 38.2997 16.8087 38.3001 16.8087C38.3005 16.8087 38.3009 16.8087 38.3013 16.8087C38.3017 16.8087 38.3021 16.8087 38.3025 16.8087C38.3029 16.8087 38.3033 16.8087 38.3037 16.8087C38.3041 16.8087 38.3045 16.8087 38.3049 16.8087C38.3053 16.8087 38.3057 16.8087 38.3061 16.8087C38.3065 16.8087 38.3069 16.8087 38.3073 16.8087C38.3077 16.8087 38.3081 16.8087 38.3085 16.8087C38.3089 16.8087 38.3093 16.8087 38.3097 16.8087C38.3101 16.8087 38.3105 16.8087 38.3109 16.8087C38.3113 16.8087 38.3117 16.8087 38.3121 16.8087C38.3125 16.8087 38.3129 16.8087 38.3133 16.8087C38.3137 16.8087 38.3141 16.8087 38.3145 16.8087C38.3149 16.8087 38.3153 16.8087 38.3157 16.8087C38.3161 16.8087 38.3165 16.8087 38.3169 16.8087C38.3173 16.8087 38.3177 16.8087 38.3181 16.8087C38.3185 16.8087 38.3189 16.8087 38.3193 16.8087C38.3197 16.8087 38.3201 16.8087 38.3205 16.8087C38.3209 16.8087 38.3212 16.8087 38.3216 16.8087C38.322 16.8087 38.3224 16.8087 38.3228 16.8087C38.3232 16.8087 38.3236 16.8087 38.324 16.8087C38.3244 16.8087 38.3248 16.8087 38.3252 16.8087C38.3256 16.8087 38.326 16.8087 38.3264 16.8087C38.3267 16.8087 38.3271 16.8087 38.3275 16.8087C38.3279 16.8087 38.3283 16.8087 38.3287 16.8087C38.3291 16.8087 38.3295 16.8087 38.3299 16.8087C38.3303 16.8087 38.3307 16.8087 38.3311 16.8087C38.3314 16.8087 38.3318 16.8087 38.3322 16.8087C38.3326 16.8087 38.333 16.8087 38.3334 16.8087C38.3338 16.8087 38.3342 16.8087 38.3346 16.8087C38.3349 16.8087 38.3353 16.8087 38.3357 16.8087C38.3361 16.8087 38.3365 16.8087 38.3369 16.8087C38.3373 16.8087 38.3377 16.8087 38.338 16.8087C38.3384 16.8087 38.3388 16.8087 38.3392 16.8087C38.3396 16.8087 38.34 16.8087 38.3404 16.8087C38.3408 16.8087 38.3411 16.8087 38.3415 16.8087C38.3419 16.8087 38.3423 16.8087 38.3427 16.8087C38.3431 16.8087 38.3434 16.8087 38.3438 16.8087C38.3442 16.8087 38.3446 16.8087 38.345 16.8087C38.3454 16.8087 38.3458 16.8087 38.3461 16.8087C38.3465 16.8087 38.3469 16.8087 38.3473 16.8087C38.3477 16.8087 38.3481 16.8087 38.3484 16.8087C38.3488 16.8087 38.3492 16.8087 38.3496 16.8087C38.35 16.8087 38.3503 16.8087 38.3507 16.8087C38.3511 16.8087 38.3515 16.8087 38.3519 16.8087C38.3523 16.8087 38.3526 16.8087 38.353 16.8087C38.3534 16.8087 38.3538 16.8087 38.3542 16.8087C38.3545 16.8087 38.3549 16.8087 38.3553 16.8087C38.3557 16.8087 38.3561 16.8087 38.3564 16.8087C38.3568 16.8087 38.3572 16.8087 38.3576 16.8087C38.358 16.8087 38.3583 16.8087 38.3587 16.8087C38.3591 16.8087 38.3595 16.8087 38.3599 16.8087C38.3602 16.8087 38.3606 16.8087 38.361 16.8087C38.3614 16.8087 38.3617 16.8087 38.3621 16.8087C38.3625 16.8087 38.3629 16.8087 38.3632 16.8087C38.3636 16.8087 38.364 16.8087 38.3644 16.8087C38.3648 16.8087 38.3651 16.8087 38.3655 16.8087C38.3659 16.8087 38.3663 16.8087 38.3666 16.8087C38.367 16.8087 38.3674 16.8087 38.3678 16.8087C38.3681 16.8087 38.3685 16.8087 38.3689 16.8087C38.3693 16.8087 38.3696 16.8087 38.37 16.8087C38.3704 16.8087 38.3708 16.8087 38.3711 16.8087C38.3715 16.8087 38.3719 16.8087 38.3722 16.8087C38.3726 16.8087 38.373 16.8087 38.3734 16.8087C38.3737 16.8087 38.3741 16.8087 38.3745 16.8087C38.3749 16.8087 38.3752 16.8087 38.3756 16.8087C38.376 16.8087 38.3763 16.8087 38.3767 16.8087C38.3771 16.8087 38.3775 16.8087 38.3778 16.8087C38.3782 16.8087 38.3786 16.8087 38.3789 16.8087C38.3793 16.8087 38.3797 16.8087 38.38 16.8087C38.3804 16.8087 38.3808 16.8087 38.3812 16.8087C38.3815 16.8087 38.3819 16.8087 38.3823 16.8087C38.3826 16.8087 38.383 16.8087 38.3834 16.8087C38.3837 16.8087 38.3841 16.8087 38.3845 16.8087C38.3848 16.8087 38.3852 16.8087 38.3856 16.8087C38.3859 16.8087 38.3863 16.8087 38.3867 16.8087C38.387 16.8087 38.3874 16.8087 38.3878 16.8087C38.3881 16.8087 38.3885 16.8087 38.3889 16.8087C38.3892 16.8087 38.3896 16.8087 38.39 16.8087C38.3903 16.8087 38.3907 16.8087 38.3911 16.8087C38.3914 16.8087 38.3918 16.8087 38.3922 16.8087C38.3925 16.8087 38.3929 16.8087 38.3933 16.8087C38.3936 16.8087 38.394 16.8087 38.3944 16.8087C38.3947 16.8087 38.3951 16.8087 38.3954 16.8087C38.3958 16.8087 38.3962 16.8087 38.3965 16.8087C38.3969 16.8087 38.3973 16.8087 38.3976 16.8087C38.398 16.8087 38.3984 16.8087 38.3987 16.8087C38.3991 16.8087 38.3994 16.8087 38.3998 16.8087C38.4002 16.8087 38.4005 16.8087 38.4009 16.8087C38.4012 16.8087 38.4016 16.8087 38.402 16.8087C38.4023 16.8087 38.4027 16.8087 38.4031 16.8087C38.4034 16.8087 38.4038 16.8087 38.4041 16.8087C38.4045 16.8087 38.4049 16.8087 38.4052 16.8087C38.4056 16.8087 38.4059 16.8087 38.4063 16.8087C38.4067 16.8087 38.407 16.8087 38.4074 16.8087C38.4077 16.8087 38.4081 16.8087 38.4084 16.8087C38.4088 16.8087 38.4092 16.8087 38.4095 16.8087C38.4099 16.8087 38.4102 16.8087 38.4106 16.8087C38.411 16.8087 38.4113 16.8087 38.4117 16.8087C38.412 16.8087 38.4124 16.8087 38.4127 16.8087C38.4131 16.8087 38.4135 16.8087 38.4138 16.8087C38.4142 16.8087 38.4145 16.8087 38.4149 16.8087C38.4152 16.8087 38.4156 16.8087 38.4159 16.8087C38.4163 16.8087 38.4167 16.8087 38.417 16.8087C38.4174 16.8087 38.4177 16.8087 38.4181 16.8087C38.4184 16.8087 38.4188 16.8087 38.4191 16.8087C38.4195 16.8087 38.4198 16.8087 38.4202 16.8087C38.4206 16.8087 38.4209 16.8087 38.4213 16.8087C38.4216 16.8087 38.422 16.8087 38.4223 16.8087C38.4227 16.8087 38.423 16.8087 38.4234 16.8087C38.4237 16.8087 38.4241 16.8087 38.4244 16.8087C38.4248 16.8087 38.4251 16.8087 38.4255 16.8087C38.4258 16.8087 38.4262 16.8087 38.4266 16.8087C38.4269 16.8087 38.4273 16.8087 38.4276 16.8087C38.428 16.8087 38.4283 16.8087 38.4287 16.8087C38.429 16.8087 38.4294 16.8087 38.4297 16.8087C38.4301 16.8087 38.4304 16.8087 38.4308 16.8087C38.4311 16.8087 38.4315 16.8087 38.4318 16.8087C38.4322 16.8087 38.4325 16.8087 38.4329 16.8087C38.4332 16.8087 38.4336 16.8087 38.4339 16.8087C38.4343 16.8087 38.4346 16.8087 38.435 16.8087C38.4353 16.8087 38.4356 16.8087 38.436 16.8087C38.4363 16.8087 38.4367 16.8087 38.437 16.8087C38.4374 16.8087 38.4377 16.8087 38.4381 16.8087C38.4384 16.8087 38.4388 16.8087 38.4391 16.8087C38.4395 16.8087 38.4398 16.8087 38.4402 16.8087C38.4405 16.8087 38.4409 16.8087 38.4412 16.8087C38.4415 16.8087 38.4419 16.8087 38.4422 16.8087C38.4426 16.8087 38.4429 16.8087 38.4433 16.8087C38.4436 16.8087 38.444 16.8087 38.4443 16.8087C38.4447 16.8087 38.445 16.8087 38.4453 16.8087C38.4457 16.8087 38.446 16.8087 38.4464 16.8087C38.4467 16.8087 38.4471 16.8087 38.4474 16.8087C38.4478 16.8087 38.4481 16.8087 38.4484 16.8087C38.4488 16.8087 38.4491 16.8087 38.4495 16.8087C38.4498 16.8087 38.4502 16.8087 38.4505 16.8087C38.4508 16.8087 38.4512 16.8087 38.4515 16.8087C38.4519 16.8087 38.4522 16.8087 38.4526 16.8087C38.4529 16.8087 38.4532 16.8087 38.4536 16.8087C38.4539 16.8087 38.4543 16.8087 38.4546 16.8087C38.4549 16.8087 38.4553 16.8087 38.4556 16.8087C38.456 16.8087 38.4563 16.8087 38.4566 16.8087C38.457 16.8087 38.4573 16.8087 38.4577 16.8087C38.458 16.8087 38.4583 16.8087 38.4587 16.8087C38.459 16.8087 38.4594 16.8087 38.4597 16.8087C38.46 16.8087 38.4604 16.8087 38.4607 16.8087C38.4611 16.8087 38.4614 16.8087 38.4617 16.8087C38.4621 16.8087 38.4624 16.8087 38.4627 16.8087C38.4631 16.8087 38.4634 16.8087 38.4638 16.8087C38.4641 16.8087 38.4644 16.8087 38.4648 16.8087C38.4651 16.8087 38.4655 16.8087 38.4658 16.8087C38.4661 16.8087 38.4665 16.8087 38.4668 16.8087C38.4671 16.8087 38.4675 16.8087 38.4678 16.8087C38.4681 16.8087 38.4685 16.8087 38.4688 16.8087C38.4692 16.8087 38.4695 16.8087 38.4698 16.8087C38.4702 16.8087 38.4705 16.8087 38.4708 16.8087C38.4712 16.8087 38.4715 16.8087 38.4718 16.8087C38.4722 16.8087 38.4725 16.8087 38.4728 16.8087C38.4732 16.8087 38.4735 16.8087 38.4738 16.8087C38.4742 16.8087 38.4745 16.8087 38.4748 16.8087C38.4752 16.8087 38.4755 16.8087 38.4758 16.8087C38.4762 16.8087 38.4765 16.8087 38.4768 16.8087C38.4772 16.8087 38.4775 16.8087 38.4778 16.8087C38.4782 16.8087 38.4785 16.8087 38.4788 16.8087C38.4792 16.8087 38.4795 16.8087 38.4798 16.8087C38.4802 16.8087 38.4805 16.8087 38.4808 16.8087C38.4812 16.8087 38.4815 16.8087 38.4818 16.8087C38.4822 16.8087 38.4825 16.8087 38.4828 16.8087C38.4832 16.8087 38.4835 16.8087 38.4838 16.8087C38.4841 16.8087 38.4845 16.8087 38.4848 16.8087C38.4851 16.8087 38.4855 16.8087 38.4858 16.8087C38.4861 16.8087 38.4865 16.8087 38.4868 16.8087C38.4871 16.8087 38.4874 16.8087 38.4878 16.8087C38.4881 16.8087 38.4884 16.8087 38.4888 16.8087C38.4891 16.8087 38.4894 16.8087 38.4897 16.8087C38.4901 16.8087 38.4904 16.8087 38.4907 16.8087C38.4911 16.8087 38.4914 16.8087 38.4917 16.8087C38.492 16.8087 38.4924 16.8087 38.4927 16.8087C38.493 16.8087 38.4934 16.8087 38.4937 16.8087C38.494 16.8087 38.4943 16.8087 38.4947 16.8087C38.495 16.8087 38.4953 16.8087 38.4956 16.8087C38.496 16.8087 38.4963 16.8087 38.4966 16.8087C38.4969 16.8087 38.4973 16.8087 38.4976 16.8087C38.4979 16.8087 38.4982 16.8087 38.4986 16.8087C38.4989 16.8087 38.4992 16.8087 38.4995 16.8087C38.4999 16.8087 38.5002 16.8087 38.5005 16.8087C38.5009 16.8087 38.5012 16.8087 38.5015 16.8087C38.5018 16.8087 38.5021 16.8087 38.5025 16.8087C38.5028 16.8087 38.5031 16.8087 38.5034 16.8087C38.5038 16.8087 38.5041 16.8087 38.5044 16.8087C38.5047 16.8087 38.5051 16.8087 38.5054 16.8087C38.5057 16.8087 38.506 16.8087 38.5064 16.8087C38.5067 16.8087 38.507 16.8087 38.5073 16.8087C38.5076 16.8087 38.508 16.8087 38.5083 16.8087C38.5086 16.8087 38.5089 16.8087 38.5093 16.8087C38.5096 16.8087 38.5099 16.8087 38.5102 16.8087C38.5105 16.8087 38.5109 16.8087 38.5112 16.8087C38.5115 16.8087 38.5118 16.8087 38.5122 16.8087C38.5125 16.8087 38.5128 16.8087 38.5131 16.8087C38.5134 16.8087 38.5138 16.8087 38.5141 16.8087C38.5144 16.8087 38.5147 16.8087 38.515 16.8087C38.5154 16.8087 38.5157 16.8087 38.516 16.8087C38.5163 16.8087 38.5166 16.8087 38.517 16.8087C38.5173 16.8087 38.5176 16.8087 38.5179 16.8087C38.5182 16.8087 38.5186 16.8087 38.5189 16.8087C38.5192 16.8087 38.5195 16.8087 38.5198 16.8087C38.5201 16.8087 38.5205 16.8087 38.5208 16.8087C38.5211 16.8087 38.5214 16.8087 38.5217 16.8087C38.5221 16.8087 38.5224 16.8087 38.5227 16.8087C38.523 16.8087 38.5233 16.8087 38.5236 16.8087C38.524 16.8087 38.5243 16.8087 38.5246 16.8087C38.5249 16.8087 38.5252 16.8087 38.5255 16.8087C38.5259 16.8087 38.5262 16.8087 38.5265 16.8087C38.5268 16.8087 38.5271 16.8087 38.5274 16.8087C38.5278 16.8087 38.5281 16.8087 38.5284 16.8087C38.5287 16.8087 38.529 16.8087 38.5293 16.8087C38.5297 16.8087 38.53 16.8087 38.5303 16.8087C38.5306 16.8087 38.5309 16.8087 38.5312 16.8087C38.5315 16.8087 38.5319 16.8087 38.5322 16.8087C38.5325 16.8087 38.5328 16.8087 38.5331 16.8087C38.5334 16.8087 38.5337 16.8087 38.5341 16.8087C38.5344 16.8087 38.5347 16.8087 38.535 16.8087C38.5353 16.8087 38.5356 16.8087 38.5359 16.8087C38.5363 16.8087 38.5366 16.8087 38.5369 16.8087C38.5372 16.8087 38.5375 16.8087 38.5378 16.8087C38.5381 16.8087 38.5385 16.8087 38.5388 16.8087C38.5391 16.8087 38.5394 16.8087 38.5397 16.8087C38.54 16.8087 38.5403 16.8087 38.5406 16.8087C38.541 16.8087 38.5413 16.8087 38.5416 16.8087C38.5419 16.8087 38.5422 16.8087 38.5425 16.8087C38.5428 16.8087 38.5431 16.8087 38.5434 16.8087C38.5438 16.8087 38.5441 16.8087 38.5444 16.8087C38.5447 16.8087 38.545 16.8087 38.5453 16.8087C38.5456 16.8087 38.5459 16.8087 38.5462 16.8087C38.5466 16.8087 38.5469 16.8087 38.5472 16.8087C38.5475 16.8087 38.5478 16.8087 38.5481 16.8087C38.5484 16.8087 38.5487 16.8087 38.549 16.8087C38.5493 16.8087 38.5496 16.8087 38.55 16.8087C38.5503 16.8087 38.5506 16.8087 38.5509 16.8087C38.5512 16.8087 38.5515 16.8087 38.5518 16.8087C38.5521 16.8087 38.5524 16.8087 38.5527 16.8087C38.553 16.8087 38.5534 16.8087 38.5537 16.8087C38.554 16.8087 38.5543 16.8087 38.5546 16.8087C38.5549 16.8087 38.5552 16.8087 38.5555 16.8087C38.5558 16.8087 38.5561 16.8087 38.5564 16.8087C38.5567 16.8087 38.557 16.8087 38.5574 16.8087C38.5577 16.8087 38.558 16.8087 38.5583 16.8087C38.5586 16.8087 38.5589 16.8087 38.5592 16.8087C38.5595 16.8087 38.5598 16.8087 38.5601 16.8087C38.5604 16.8087 38.5607 16.8087 38.561 16.8087C38.5613 16.8087 38.5616 16.8087 38.562 16.8087C38.5623 16.8087 38.5626 16.8087 38.5629 16.8087C38.5632 16.8087 38.5635 16.8087 38.5638 16.8087C38.5641 16.8087 38.5644 16.8087 38.5647 16.8087C38.565 16.8087 38.5653 16.8087 38.5656 16.8087C38.5659 16.8087 38.5662 16.8087 38.5665 16.8087C38.5668 16.8087 38.5671 16.8087 38.5674 16.8087C38.5678 16.8087 38.5681 16.8087 38.5684 16.8087C38.5687 16.8087 38.569 16.8087 38.5693 16.8087C38.5696 16.8087 38.5699 16.8087 38.5702 16.8087C38.5705 16.8087 38.5708 16.8087 38.5711 16.8087C38.5714 16.8087 38.5717 16.8087 38.572 16.8087C38.5723 16.8087 38.5726 16.8087 38.5729 16.8087C38.5732 16.8087 38.5735 16.8087 38.5738 16.8087C38.5741 16.8087 38.5744 16.8087 38.5747 16.8087C38.575 16.8087 38.5753 16.8087 38.5756 16.8087C38.5759 16.8087 38.5762 16.8087 38.5765 16.8087C38.5768 16.8087 38.5771 16.8087 38.5774 16.8087C38.5777 16.8087 38.578 16.8087 38.5784 16.8087C38.5787 16.8087 38.579 16.8087 38.5793 16.8087C38.5796 16.8087 38.5799 16.8087 38.5802 16.8087C38.5805 16.8087 38.5808 16.8087 38.5811 16.8087C38.5814 16.8087 38.5817 16.8087 38.582 16.8087C38.5823 16.8087 38.5826 16.8087 38.5829 16.8087C38.5832 16.8087 38.5835 16.8087 38.5838 16.8087C38.5841 16.8087 38.5844 16.8087 38.5847 16.8087C38.585 16.8087 38.5853 16.8087 38.5856 16.8087C38.5859 16.8087 38.5862 16.8087 38.5865 16.8087C38.5868 16.8087 38.5871 16.8087 38.5874 16.8087C38.5877 16.8087 38.588 16.8087 38.5883 16.8087C38.5886 16.8087 38.5888 16.8087 38.5891 16.8087C38.5894 16.8087 38.5897 16.8087 38.59 16.8087C38.5903 16.8087 38.5906 16.8087 38.5909 16.8087C38.5912 16.8087 38.5915 16.8087 38.5918 16.8087C38.5921 16.8087 38.5924 16.8087 38.5927 16.8087C38.593 16.8087 38.5933 16.8087 38.5936 16.8087C38.5939 16.8087 38.5942 16.8087 38.5945 16.8087C38.5948 16.8087 38.5951 16.8087 38.5954 16.8087C38.5957 16.8087 38.596 16.8087 38.5963 16.8087C38.5966 16.8087 38.5969 16.8087 38.5972 16.8087C38.5975 16.8087 38.5978 16.8087 38.5981 16.8087C38.5984 16.8087 38.5987 16.8087 38.599 16.8087C38.5993 16.8087 38.5996 16.8087 38.5998 16.8087C38.6001 16.8087 38.6004 16.8087 38.6007 16.8087C38.601 16.8087 38.6013 16.8087 38.6016 16.8087C38.6019 16.8087 38.6022 16.8087 38.6025 16.8087C38.6028 16.8087 38.6031 16.8087 38.6034 16.8087C38.6037 16.8087 38.604 16.8087 38.6043 16.8087C38.6046 16.8087 38.6049 16.8087 38.6052 16.8087C38.6055 16.8087 38.6058 16.8087 38.606 16.8087C38.6063 16.8087 38.6066 16.8087 38.6069 16.8087C38.6072 16.8087 38.6075 16.8087 38.6078 16.8087C38.6081 16.8087 38.6084 16.8087 38.6087 16.8087C38.609 16.8087 38.6093 16.8087 38.6096 16.8087C38.6099 16.8087 38.6102 16.8087 38.6105 16.8087C38.6107 16.8087 38.611 16.8087 38.6113 16.8087C38.6116 16.8087 38.6119 16.8087 38.6122 16.8087C38.6125 16.8087 38.6128 16.8087 38.6131 16.8087C38.6134 16.8087 38.6137 16.8087 38.614 16.8087C38.6143 16.8087 38.6146 16.8087 38.6148 16.8087C38.6151 16.8087 38.6154 16.8087 38.6157 16.8087C38.616 16.8087 38.6163 16.8087 38.6166 16.8087C38.6169 16.8087 38.6172 16.8087 38.6175 16.8087C38.6178 16.8087 38.6181 16.8087 38.6184 16.8087C38.6186 16.8087 38.6189 16.8087 38.6192 16.8087C38.6195 16.8087 38.6198 16.8087 38.6201 16.8087C38.6204 16.8087 38.6207 16.8087 38.621 16.8087C38.6213 16.8087 38.6216 16.8087 38.6218 16.8087C38.6221 16.8087 38.6224 16.8087 38.6227 16.8087C38.623 16.8087 38.6233 16.8087 38.6236 16.8087C38.6239 16.8087 38.6242 16.8087 38.6245 16.8087C38.6248 16.8087 38.625 16.8087 38.6253 16.8087C38.6256 16.8087 38.6259 16.8087 38.6262 16.8087C38.6265 16.8087 38.6268 16.8087 38.6271 16.8087C38.6274 16.8087 38.6277 16.8087 38.6279 16.8087C38.6282 16.8087 38.6285 16.8087 38.6288 16.8087C38.6291 16.8087 38.6294 16.8087 38.6297 16.8087C38.63 16.8087 38.6303 16.8087 38.6305 16.8087C38.6308 16.8087 38.6311 16.8087 38.6314 16.8087C38.6317 16.8087 38.632 16.8087 38.6323 16.8087C38.6326 16.8087 38.6329 16.8087 38.6331 16.8087C38.6334 16.8087 38.6337 16.8087 38.634 16.8087C38.6343 16.8087 38.6346 16.8087 38.6349 16.8087C38.6352 16.8087 38.6355 16.8087 38.6357 16.8087C38.636 16.8087 38.6363 16.8087 38.6366 16.8087C38.6369 16.8087 38.6372 16.8087 38.6375 16.8087C38.6378 16.8087 38.638 16.8087 38.6383 16.8087C38.6386 16.8087 38.6389 16.8087 38.6392 16.8087C38.6395 16.8087 38.6398 16.8087 38.6401 16.8087C38.6403 16.8087 38.6406 16.8087 38.6409 16.8087C38.6412 16.8087 38.6415 16.8087 38.6418 16.8087C38.6421 16.8087 38.6423 16.8087 38.6426 16.8087C38.6429 16.8087 38.6432 16.8087 38.6435 16.8087C38.6438 16.8087 38.6441 16.8087 38.6444 16.8087C38.6446 16.8087 38.6449 16.8087 38.6452 16.8087C38.6455 16.8087 38.6458 16.8087 38.6461 16.8087C38.6464 16.8087 38.6466 16.8087 38.6469 16.8087C38.6472 16.8087 38.6475 16.8087 38.6478 16.8087C38.6481 16.8087 38.6484 16.8087 38.6486 16.8087C38.6489 16.8087 38.6492 16.8087 38.6495 16.8087C38.6498 16.8087 38.6501 16.8087 38.6504 16.8087C38.6506 16.8087 38.6509 16.8087 38.6512 16.8087C38.6515 16.8087 38.6518 16.8087 38.6521 16.8087C38.6523 16.8087 38.6526 16.8087 38.6529 16.8087C38.6532 16.8087 38.6535 16.8087 38.6538 16.8087C38.6541 16.8087 38.6543 16.8087 38.6546 16.8087C38.6549 16.8087 38.6552 16.8087 38.6555 16.8087C38.6558 16.8087 38.656 16.8087 38.6563 16.8087C38.6566 16.8087 38.6569 16.8087 38.6572 16.8087C38.6575 16.8087 38.6578 16.8087 38.658 16.8087C38.6583 16.8087 38.6586 16.8087 38.6589 16.8087C38.6592 16.8087 38.6595 16.8087 38.6597 16.8087C38.66 16.8087 38.6603 16.8087 38.6606 16.8087C38.6609 16.8087 38.6612 16.8087 38.6614 16.8087C38.6617 16.8087 38.662 16.8087 38.6623 16.8087C38.6626 16.8087 38.6629 16.8087 38.6631 16.8087C38.6634 16.8087 38.6637 16.8087 38.664 16.8087C38.6643 16.8087 38.6646 16.8087 38.6648 16.8087C38.6651 16.8087 38.6654 16.8087 38.6657 16.8087C38.666 16.8087 38.6662 16.8087 38.6665 16.8087C38.6668 16.8087 38.6671 16.8087 38.6674 16.8087C38.6677 16.8087 38.6679 16.8087 38.6682 16.8087C38.6685 16.8087 38.6688 16.8087 38.6691 16.8087C38.6694 16.8087 38.6696 16.8087 38.6699 16.8087C38.6702 16.8087 38.6705 16.8087 38.6708 16.8087C38.671 16.8087 38.6713 16.8087 38.6716 16.8087C38.6719 16.8087 38.6722 16.8087 38.6725 16.8087C38.6727 16.8087 38.673 16.8087 38.6733 16.8087C38.6736 16.8087 38.6739 16.8087 38.6741 16.8087C38.6744 16.8087 38.6747 16.8087 38.675 16.8087C38.6753 16.8087 38.6755 16.8087 38.6758 16.8087C38.6761 16.8087 38.6764 16.8087 38.6767 16.8087C38.6769 16.8087 38.6772 16.8087 38.6775 16.8087C38.6778 16.8087 38.6781 16.8087 38.6784 16.8087C38.6786 16.8087 38.6789 16.8087 38.6792 16.8087C38.6795 16.8087 38.6798 16.8087 38.68 16.8087C38.6803 16.8087 38.6806 16.8087 38.6809 16.8087C38.6812 16.8087 38.6814 16.8087 38.6817 16.8087C38.682 16.8087 38.6823 16.8087 38.6826 16.8087C38.6828 16.8087 38.6831 16.8087 38.6834 16.8087C38.6837 16.8087 38.684 16.8087 38.6842 16.8087C38.6845 16.8087 38.6848 16.8087 38.6851 16.8087C38.6854 16.8087 38.6856 16.8087 38.6859 16.8087C38.6862 16.8087 38.6865 16.8087 38.6868 16.8087C38.687 16.8087 38.6873 16.8087 38.6876 16.8087C38.6879 16.8087 38.6882 16.8087 38.6884 16.8087C38.6887 16.8087 38.689 16.8087 38.6893 16.8087C38.6895 16.8087 38.6898 16.8087 38.6901 16.8087C38.6904 16.8087 38.6907 16.8087 38.6909 16.8087C38.6912 16.8087 38.6915 16.8087 38.6918 16.8087C38.6921 16.8087 38.6923 16.8087 38.6926 16.8087C38.6929 16.8087 38.6932 16.8087 38.6935 16.8087C38.6937 16.8087 38.694 16.8087 38.6943 16.8087C38.6946 16.8087 38.6948 16.8087 38.6951 16.8087C38.6954 16.8087 38.6957 16.8087 38.696 16.8087C38.6962 16.8087 38.6965 16.8087 38.6968 16.8087C38.6971 16.8087 38.6974 16.8087 38.6976 16.8087C38.6979 16.8087 38.6982 16.8087 38.6985 16.8087C38.6987 16.8087 38.699 16.8087 38.6993 16.8087C38.6996 16.8087 38.6999 16.8087 38.7001 16.8087C38.7004 16.8087 38.7007 16.8087 38.701 16.8087C38.7012 16.8087 38.7015 16.8087 38.7018 16.8087C38.7021 16.8087 38.7024 16.8087 38.7026 16.8087C38.7029 16.8087 38.7032 16.8087 38.7035 16.8087C38.7037 16.8087 38.704 16.8087 38.7043 16.8087C38.7046 16.8087 38.7049 16.8087 38.7051 16.8087C38.7054 16.8087 38.7057 16.8087 38.706 16.8087C38.7062 16.8087 38.7065 16.8087 38.7068 16.8087C38.7071 16.8087 38.7073 16.8087 38.7076 16.8087C38.7079 16.8087 38.7082 16.8087 38.7085 16.8087C38.7087 16.8087 38.709 16.8087 38.7093 16.8087C38.7096 16.8087 38.7098 16.8087 38.7101 16.8087C38.7104 16.8087 38.7107 16.8087 38.7109 16.8087C38.7112 16.8087 38.7115 16.8087 38.7118 16.8087C38.7121 16.8087 38.7123 16.8087 38.7126 16.8087C38.7129 16.8087 38.7132 16.8087 38.7134 16.8087C38.7137 16.8087 38.714 16.8087 38.7143 16.8087C38.7145 16.8087 38.7148 16.8087 38.7151 16.8087C38.7154 16.8087 38.7156 16.8087 38.7159 16.8087C38.7162 16.8087 38.7165 16.8087 38.7168 16.8087C38.717 16.8087 38.7173 16.8087 38.7176 16.8087C38.7179 16.8087 38.7181 16.8087 38.7184 16.8087C38.7187 16.8087 38.719 16.8087 38.7192 16.8087C38.7195 16.8087 38.7198 16.8087 38.7201 16.8087C38.7203 16.8087 38.7206 16.8087 38.7209 16.8087C38.7212 16.8087 38.7214 16.8087 38.7217 16.8087C38.722 16.8087 38.7223 16.8087 38.7225 16.8087C38.7228 16.8087 38.7231 16.8087 38.7234 16.8087C38.7237 16.8087 38.7239 16.8087 38.7242 16.8087C38.7245 16.8087 38.7248 16.8087 38.725 16.8087C38.7253 16.8087 38.7256 16.8087 38.7259 16.8087C38.7261 16.8087 38.7264 16.8087 38.7267 16.8087C38.727 16.8087 38.7272 16.8087 38.7275 16.8087C38.7278 16.8087 38.7281 16.8087 38.7283 16.8087C38.7286 16.8087 38.7289 16.8087 38.7292 16.8087C38.7294 16.8087 38.7297 16.8087 38.73 16.8087C38.7303 16.8087 38.7305 16.8087 38.7308 16.8087C38.7311 16.8087 38.7314 16.8087 38.7316 16.8087C38.7319 16.8087 38.7322 16.8087 38.7325 16.8087C38.7327 16.8087 38.733 16.8087 38.7333 16.8087C38.7336 16.8087 38.7338 16.8087 38.7341 16.8087C38.7344 16.8087 38.7347 16.8087 38.7349 16.8087C38.7352 16.8087 38.7355 16.8087 38.7358 16.8087C38.736 16.8087 38.7363 16.8087 38.7366 16.8087C38.7369 16.8087 38.7371 16.8087 38.7374 16.8087C38.7377 16.8087 38.738 16.8087 38.7382 16.8087C38.7385 16.8087 38.7388 16.8087 38.7391 16.8087C38.7393 16.8087 38.7396 16.8087 38.7399 16.8087C38.7402 16.8087 38.7404 16.8087 38.7407 16.8087C38.741 16.8087 38.7413 16.8087 38.7415 16.8087C38.7418 16.8087 38.7421 16.8087 38.7424 16.8087C38.7426 16.8087 38.7429 16.8087 38.7432 16.8087C38.7435 16.8087 38.7437 16.8087 38.744 16.8087C38.7443 16.8087 38.7446 16.8087 38.7448 16.8087C38.7451 16.8087 38.7454 16.8087 38.7457 16.8087C38.7459 16.8087 38.7462 16.8087 38.7465 16.8087C38.7467 16.8087 38.747 16.8087 38.7473 16.8087C38.7476 16.8087 38.7478 16.8087 38.7481 16.8087C38.7484 16.8087 38.7487 16.8087 38.7489 16.8087C38.7492 16.8087 38.7495 16.8087 38.7498 16.8087C38.75 16.8087 38.7503 16.8087 38.7506 16.8087C38.7509 16.8087 38.7511 16.8087 38.7514 16.8087C38.7517 16.8087 38.752 16.8087 38.7522 16.8087C38.7525 16.8087 38.7528 16.8087 38.7531 16.8087C38.7533 16.8087 38.7536 16.8087 38.7539 16.8087C38.7542 16.8087 38.7544 16.8087 38.7547 16.8087C38.755 16.8087 38.7552 16.8087 38.7555 16.8087C38.7558 16.8087 38.7561 16.8087 38.7563 16.8087C38.7566 16.8087 38.7569 16.8087 38.7572 16.8087C38.7574 16.8087 38.7577 16.8087 38.758 16.8087C38.7583 16.8087 38.7585 16.8087 38.7588 16.8087C38.7591 16.8087 38.7594 16.8087 38.7596 16.8087C38.7599 16.8087 38.7602 16.8087 38.7605 16.8087C38.7607 16.8087 38.761 16.8087 38.7613 16.8087C38.7615 16.8087 38.7618 16.8087 38.7621 16.8087C38.7624 16.8087 38.7626 16.8087 38.7629 16.8087C38.7632 16.8087 38.7635 16.8087 38.7637 16.8087C38.764 16.8087 38.7643 16.8087 38.7646 16.8087C38.7648 16.8087 38.7651 16.8087 38.7654 16.8087C38.7657 16.8087 38.7659 16.8087 38.7662 16.8087C38.7665 16.8087 38.7668 16.8087 38.767 16.8087C38.7673 16.8087 38.7676 16.8087 38.7678 16.8087C38.7681 16.8087 38.7684 16.8087 38.7687 16.8087C38.7689 16.8087 38.7692 16.8087 38.7695 16.8087C38.7698 16.8087 38.77 16.8087 38.7703 16.8087C38.7706 16.8087 38.7709 16.8087 38.7711 16.8087C38.7714 16.8087 38.7717 16.8087 38.7719 16.8087C38.7722 16.8087 38.7725 16.8087 38.7728 16.8087C38.773 16.8087 38.7733 16.8087 38.7736 16.8087V14.8087ZM38.283 14.8087C29.9812 14.8087 22.8411 12.9578 18.8598 10.3371L17.7601 12.0076C22.1886 14.9228 29.7654 16.8087 38.283 16.8087V14.8087ZM17.3831 10.7969C16.7618 12.3307 15.6602 13.5743 14.3088 14.2124L15.1629 16.0209C17.0352 15.1367 18.4566 13.4739 19.2368 11.5478L17.3831 10.7969ZM14.3685 14.1866C13.7002 14.4506 13.1916 15.0738 13.0549 15.7486L15.0151 16.1456C15.0136 16.1534 15.0132 16.1502 15.0193 16.1379C15.0253 16.1259 15.0349 16.1105 15.0483 16.0945C15.0616 16.0786 15.0753 16.0659 15.0872 16.0571C15.099 16.0482 15.1051 16.046 15.1032 16.0468L14.3685 14.1866ZM13.0767 15.6616C12.7106 16.8905 12.4171 18.2655 12.2698 19.6471L14.2585 19.8591C14.3915 18.6111 14.6587 17.3564 14.9934 16.2326L13.0767 15.6616ZM30.9946 34.8005H39.4744V32.8005H30.9946V34.8005ZM39.4744 34.8005C41.6967 34.8005 43.558 32.9807 43.558 30.7558H41.558C41.558 31.8524 40.616 32.8005 39.4744 32.8005V34.8005ZM43.558 30.7558V26.8806H41.558V30.7558H43.558ZM27.1402 34.1777H30.9946V32.1777H27.1402V34.1777ZM29.9946 33.1777V34.4925H31.9946V33.1777H29.9946ZM30.9946 33.4925H27.1402V35.4925H30.9946V33.4925ZM28.1402 34.4925V33.1777H26.1402V34.4925H28.1402ZM35.6061 42.8282L50.1128 48.5025L50.8414 46.6399L36.3346 40.9656L35.6061 42.8282ZM49.9731 48.435C51.2089 49.156 52 50.4885 52 52H54C54 49.7747 52.8289 47.7857 50.9811 46.7075L49.9731 48.435ZM2 52C2 50.4885 2.79114 49.156 4.02687 48.435L3.01895 46.7075C1.17112 47.7857 0 49.7747 0 52H2ZM3.88719 48.5025L18.3939 42.8282L17.6654 40.9656L3.15863 46.6399L3.88719 48.5025ZM18.7706 41.7351L24.7275 46.0946L25.9086 44.4807L19.9518 40.1211L18.7706 41.7351ZM25.0027 44.3387L17.7143 46.7607L18.345 48.6586L25.6334 46.2366L25.0027 44.3387ZM19.0296 47.7096V40.3745H17.0296V47.7096H19.0296ZM18.0296 41.3745H19.3612V39.3745H18.0296V41.3745ZM18.3612 40.3745L18.3612 40.9281L20.3612 40.9281L20.3612 40.3745L18.3612 40.3745ZM34.0527 40.1178L28.0258 44.4774L29.1979 46.0979L35.2249 41.7383L34.0527 40.1178ZM28.2992 46.2375L35.6577 48.6595L36.283 46.7598L28.9245 44.3378L28.2992 46.2375ZM36.9703 47.7096V40.3745H34.9703V47.7096H36.9703ZM35.9703 39.3745H34.6388V41.3745H35.9703V39.3745ZM33.6388 40.3745V40.9281H35.6388V40.3745H33.6388ZM28.6119 44.2877H25.3181V46.2877H28.6119V44.2877ZM12.6523 20.3067V13.2483H10.6523V20.3067H12.6523ZM41.2776 13.2483V19.0611H43.2776V13.2483H41.2776Z" fill="#5ADFFC"/>
</svg>
