<svg width="28" height="22" viewBox="0 0 28 22" fill="none" xmlns="http://www.w3.org/2000/svg">
<path d="M22.6138 17.5054C21.9034 17.5054 21.4299 17.0322 21.4299 16.3226V9.69891C21.4299 5.67741 18.1147 2.36559 14.0892 2.36559C9.94535 2.36559 6.63024 5.67741 6.63024 9.69891V16.2043C6.63024 16.914 6.15665 17.3871 5.44627 17.3871C4.73588 17.3871 4.2623 16.914 4.2623 16.2043V9.69891C4.2623 4.37634 8.64298 0 13.9708 0C19.2987 0 23.6794 4.37634 23.6794 9.69891V16.2043C23.7978 16.914 23.2058 17.5054 22.6138 17.5054Z" fill="white"/>
<path d="M22.7322 17.5054C22.0218 17.5054 21.5483 17.0323 21.5483 16.3226C21.5483 15.6129 22.0218 15.1398 22.7322 15.1398C24.2714 15.1398 25.5738 13.957 25.5738 12.5376C25.5738 11.1183 24.2714 9.9355 22.7322 9.9355C22.0218 9.9355 21.5483 9.46238 21.5483 8.75271C21.5483 8.04303 22.0218 7.56991 22.7322 7.56991C25.5738 7.56991 27.9417 9.81722 27.9417 12.5376C28.0601 15.2581 25.6922 17.5054 22.7322 17.5054Z" fill="white"/>
<path d="M5.20947 17.5054C2.36794 17.5054 0 15.2581 0 12.5376C0 9.81722 2.36794 7.56991 5.20947 7.56991C5.91985 7.56991 6.39343 8.04303 6.39343 8.75271C6.39343 9.46238 5.91985 9.9355 5.20947 9.9355C3.67031 9.9355 2.36794 11.1183 2.36794 12.5376C2.36794 13.957 3.67031 15.1398 5.20947 15.1398C5.91985 15.1398 6.39343 15.6129 6.39343 16.3226C6.39343 16.914 5.91985 17.5054 5.20947 17.5054Z" fill="white"/>
<path d="M17.6411 21.4086C17.5228 21.4086 17.4044 21.4086 17.286 21.4086C16.5756 21.4086 16.102 20.8172 16.102 20.2258C16.102 19.5161 16.694 19.043 17.286 19.043C18.8251 19.1613 19.8907 18.8064 20.6011 18.0968C21.3115 17.3871 21.3115 16.5591 21.3115 16.5591C21.3115 15.8494 21.785 15.3763 22.4954 15.3763C23.0874 15.3763 23.6794 15.8494 23.6794 16.5591C23.6794 16.7957 23.6794 18.4516 22.2586 19.7527C21.3115 20.9355 19.7723 21.4086 17.6411 21.4086Z" fill="white"/>
<path d="M16.9308 18.2151C15.8652 18.2151 15.0364 19.043 15.0364 20.1075C15.0364 21.172 15.8652 22 16.9308 22C17.9963 22 18.8251 21.172 18.8251 20.1075C18.8251 19.043 17.9963 18.2151 16.9308 18.2151Z" fill="white"/>
</svg>
