<svg width="25" height="24" viewBox="0 0 25 24" fill="none" xmlns="http://www.w3.org/2000/svg">
<path d="M12.491 2.16233C15.6109 2.16233 15.9771 2.17662 17.2103 2.23378C18.3507 2.28617 18.9672 2.48144 19.3798 2.64814C19.9269 2.86724 20.3163 3.12443 20.7242 3.54356C21.1322 3.96269 21.3872 4.36277 21.5958 4.92479C21.7534 5.34868 21.9481 5.98214 21.9991 7.1538C22.0547 8.42072 22.0686 8.79698 22.0686 12.0024C22.0686 15.2078 22.0547 15.584 21.9991 16.851C21.9481 18.0226 21.758 18.6561 21.5958 19.08C21.3825 19.642 21.1322 20.0421 20.7242 20.4612C20.3163 20.8803 19.9269 21.1423 19.3798 21.3566C18.9672 21.5186 18.3507 21.7186 17.2103 21.771C15.9771 21.8281 15.6109 21.8424 12.491 21.8424C9.37105 21.8424 9.00482 21.8281 7.77169 21.771C6.63127 21.7186 6.01471 21.5233 5.60212 21.3566C5.05509 21.1375 4.66568 20.8803 4.25772 20.4612C3.84977 20.0421 3.5948 19.642 3.38618 19.08C3.22857 18.6561 3.03386 18.0226 2.98287 16.851C2.92724 15.584 2.91333 15.2078 2.91333 12.0024C2.91333 8.79698 2.92724 8.42072 2.98287 7.1538C3.03386 5.98214 3.22393 5.34868 3.38618 4.92479C3.59943 4.36277 3.84977 3.96269 4.25772 3.54356C4.66568 3.12443 5.05509 2.86247 5.60212 2.64814C6.01471 2.48621 6.63127 2.28617 7.77169 2.23378C9.00482 2.17186 9.37569 2.16233 12.491 2.16233ZM12.491 0C9.32006 0 8.92138 0.0142886 7.67434 0.0714428C6.43193 0.128597 5.58357 0.3334 4.84184 0.628696C4.07229 0.933519 3.42327 1.34789 2.77425 2.01469C2.12524 2.68148 1.72655 3.35305 1.42522 4.13892C1.1378 4.90097 0.938461 5.77257 0.882831 7.05378C0.827201 8.33022 0.813293 8.73983 0.813293 11.9976C0.813293 15.2554 0.827201 15.665 0.882831 16.9462C0.938461 18.2227 1.1378 19.0943 1.42522 19.8611C1.72192 20.6517 2.12524 21.3185 2.77425 21.9853C3.42327 22.6521 4.07693 23.0617 4.84184 23.3713C5.58357 23.6666 6.43193 23.8714 7.67897 23.9286C8.92601 23.9857 9.32006 24 12.4956 24C15.6712 24 16.0652 23.9857 17.3122 23.9286C18.5547 23.8714 19.403 23.6666 20.1494 23.3713C20.9189 23.0665 21.568 22.6521 22.217 21.9853C22.866 21.3185 23.2647 20.647 23.566 19.8611C23.8534 19.099 24.0528 18.2274 24.1084 16.9462C24.164 15.665 24.1779 15.2602 24.1779 11.9976C24.1779 8.73507 24.164 8.33022 24.1084 7.04902C24.0528 5.77257 23.8534 4.90097 23.566 4.13415C23.2693 3.34352 22.866 2.67672 22.217 2.00992C21.568 1.34312 20.9143 0.933519 20.1494 0.623933C19.4076 0.328637 18.5593 0.123834 17.3122 0.0666799C16.0606 0.0142885 15.6619 0 12.491 0Z" fill="white"/>
<path d="M12.491 5.83923C9.18097 5.83923 6.49218 8.59692 6.49218 12.0024C6.49218 15.4078 9.17633 18.1655 12.491 18.1655C15.8056 18.1655 18.4897 15.4078 18.4897 12.0024C18.4897 8.59692 15.8056 5.83923 12.491 5.83923ZM12.491 15.9984C10.3399 15.9984 8.59685 14.2076 8.59685 11.9976C8.59685 9.78764 10.3399 7.9968 12.491 7.9968C14.642 7.9968 16.3851 9.78764 16.3851 11.9976C16.3851 14.2076 14.642 15.9984 12.491 15.9984Z" fill="white"/>
<path d="M18.7262 7.02996C19.4995 7.02996 20.1263 6.38597 20.1263 5.59158C20.1263 4.79718 19.4995 4.1532 18.7262 4.1532C17.953 4.1532 17.3262 4.79718 17.3262 5.59158C17.3262 6.38597 17.953 7.02996 18.7262 7.02996Z" fill="white"/>
</svg>
