<svg width="53" height="52" viewBox="0 0 53 52" fill="none" xmlns="http://www.w3.org/2000/svg">
<g clip-path="url(#clip0)">
<path d="M51.7955 47.0212H1.20455C1.02992 47.0212 0.90152 46.8816 0.90152 46.7335V36.4929C0.90152 36.3448 1.02992 36.2052 1.20455 36.2052H51.7955C51.9701 36.2052 52.0985 36.3448 52.0985 36.4929V46.7335C52.0985 46.8816 51.9701 47.0212 51.7955 47.0212Z" stroke="#189CD9" stroke-miterlimit="10" stroke-linejoin="round"/>
<path d="M5.1394 41.6132H7.50834" stroke="#189CD9" stroke-miterlimit="10" stroke-linejoin="round"/>
<path d="M9.87729 41.6132H12.2462" stroke="#189CD9" stroke-miterlimit="10" stroke-linejoin="round"/>
<path d="M14.6553 41.6132H17.0242" stroke="#189CD9" stroke-miterlimit="10" stroke-linejoin="round"/>
<path d="M3.97501 47.5212V51.066" stroke="#189CD9" stroke-miterlimit="10" stroke-linejoin="round"/>
<path d="M49.025 47.5212V51.066" stroke="#189CD9" stroke-miterlimit="10" stroke-linejoin="round"/>
<path d="M35.9758 35.7052V7.30743" stroke="#189CD9" stroke-miterlimit="10" stroke-linejoin="round"/>
<path d="M41.8781 11.6547V7.7006C42.3463 8.24422 42.6227 8.926 42.6227 9.6706C42.6227 10.4244 42.3405 11.1301 41.8781 11.6547Z" stroke="#189CD9" stroke-miterlimit="10" stroke-linejoin="round"/>
<path d="M45.2508 14.9925L45.2508 4.34881C46.5581 5.73219 47.3606 7.62236 47.3606 9.67064C47.3606 11.7189 46.5581 13.6091 45.2508 14.9925Z" stroke="#189CD9" stroke-miterlimit="10" stroke-linejoin="round"/>
<path d="M48.5833 18.3434V1.00004C50.7716 3.2469 52.0985 6.3216 52.0985 9.67158C52.0985 13.0583 50.7722 16.0994 48.5833 18.3434Z" stroke="#189CD9" stroke-miterlimit="10" stroke-linejoin="round"/>
<path d="M30.0735 11.6547V7.7006C29.6052 8.24422 29.3288 8.926 29.3288 9.6706C29.3288 10.4244 29.6111 11.1301 30.0735 11.6547Z" stroke="#189CD9" stroke-miterlimit="10" stroke-linejoin="round"/>
<path d="M26.7008 14.9925V4.34881C25.3935 5.73219 24.5909 7.62236 24.5909 9.67064C24.5909 11.7189 25.3935 13.6091 26.7008 14.9925Z" stroke="#189CD9" stroke-miterlimit="10" stroke-linejoin="round"/>
<path d="M23.328 18.3434V1.00004C21.1397 3.2469 19.8129 6.3216 19.8129 9.67158C19.8129 13.0583 21.1392 16.0994 23.328 18.3434Z" stroke="#189CD9" stroke-miterlimit="10" stroke-linejoin="round"/>
</g>
<defs>
<clipPath id="clip0">
<rect width="53" height="51.0452" fill="white" transform="translate(0 0.020874)"/>
</clipPath>
</defs>
</svg>
