<svg width="21" height="20" viewBox="0 0 21 20" fill="none" xmlns="http://www.w3.org/2000/svg">
<path d="M3.27237 4.8062C4.56417 4.8062 5.61139 3.7303 5.61139 2.4031C5.61139 1.0759 4.56417 0 3.27237 0C1.98056 0 0.93335 1.0759 0.93335 2.4031C0.93335 3.7303 1.98056 4.8062 3.27237 4.8062Z" fill="white"/>
<path d="M5.23411 6.58917H1.23514V19.9225H5.23411V6.58917Z" fill="white"/>
<path d="M7.79944 6.58919V19.9225H11.7984V13.3334C11.7984 11.6279 12.1002 9.92252 14.2129 9.92252C16.2501 9.92252 16.3255 11.938 16.3255 13.4884V20H20.3245V12.7132C20.3245 9.14733 19.57 6.35663 15.4956 6.35663C13.5338 6.35663 12.2511 7.4419 11.6475 8.52717H11.572V6.58919H7.79944Z" fill="white"/>
</svg>
