<?xml version="1.0" encoding="utf-8"?>
<!-- Generator: Adobe Illustrator 23.0.1, SVG Export Plug-In . SVG Version: 6.00 Build 0)  -->
<svg version="1.1" id="Layer_1" xmlns="http://www.w3.org/2000/svg" xmlns:xlink="http://www.w3.org/1999/xlink" x="0px" y="0px"
	 viewBox="0 0 53 52" style="enable-background:new 0 0 53 52;" xml:space="preserve">
<style type="text/css">
	.st0{fill:#189CD9;}
</style>
<g>
	<path class="st0" d="M51.8,47.5H1.2c-0.4,0-0.8-0.4-0.8-0.8V36.5c0-0.4,0.4-0.8,0.8-0.8h50.6c0.4,0,0.8,0.4,0.8,0.8v10.2
		C52.6,47.2,52.2,47.5,51.8,47.5z M1.4,46.5h50.2v-9.8H1.4V46.5z"/>
</g>
<g>
	<rect x="5.1" y="41.1" class="st0" width="2.4" height="1"/>
</g>
<g>
	<rect x="9.9" y="41.1" class="st0" width="2.4" height="1"/>
</g>
<g>
	<rect x="14.7" y="41.1" class="st0" width="2.4" height="1"/>
</g>
<g>
	<rect x="3.5" y="47.5" class="st0" width="1" height="3.5"/>
</g>
<g>
	<rect x="48.5" y="47.5" class="st0" width="1" height="3.5"/>
</g>
<g>
	<rect x="35.5" y="7.3" class="st0" width="1" height="28.4"/>
</g>
<g>
	<path class="st0" d="M42.3,12l-0.8-0.7c0.4-0.5,0.6-1,0.6-1.7c0-0.6-0.2-1.2-0.6-1.6l0.8-0.7c0.6,0.7,0.9,1.5,0.9,2.3
		C43.1,10.5,42.8,11.3,42.3,12z"/>
</g>
<g>
	<path class="st0" d="M45.6,15.3l-0.7-0.7c1.3-1.3,2-3.1,2-5s-0.7-3.6-2-5L45.6,4c1.4,1.5,2.2,3.5,2.2,5.7S47.1,13.8,45.6,15.3z"/>
</g>
<g>
	<path class="st0" d="M48.9,18.7L48.2,18c2.2-2.2,3.4-5.2,3.4-8.3c0-3.1-1.2-6.1-3.4-8.3l0.7-0.7c2.4,2.4,3.7,5.6,3.7,9
		C52.6,13.1,51.3,16.3,48.9,18.7z"/>
</g>
<g>
	<path class="st0" d="M29.7,12c-0.6-0.6-0.9-1.5-0.9-2.3c0-0.8,0.3-1.6,0.9-2.3L30.5,8c-0.4,0.5-0.6,1-0.6,1.6
		c0,0.6,0.2,1.2,0.6,1.7L29.7,12z"/>
</g>
<g>
	<path class="st0" d="M26.3,15.3c-1.4-1.5-2.2-3.5-2.2-5.7c0-2.1,0.8-4.1,2.2-5.7l0.7,0.7c-1.3,1.3-2,3.1-2,5c0,1.9,0.7,3.6,2,5
		L26.3,15.3z"/>
</g>
<g>
	<path class="st0" d="M23,18.7c-2.4-2.4-3.7-5.6-3.7-9c0-3.4,1.3-6.6,3.7-9l0.7,0.7c-2.2,2.2-3.4,5.2-3.4,8.3c0,3.1,1.2,6.1,3.4,8.3
		L23,18.7z"/>
</g>
</svg>
