<svg width="54" height="51" viewBox="0 0 54 51" fill="none" xmlns="http://www.w3.org/2000/svg">
<mask id="path-1-inside-1" fill="white">
<path d="M51.081 20.672C52.4546 20.672 53.5707 19.6142 53.5707 18.3123V3.09646C53.5707 1.79457 52.4546 0.777466 51.081 0.777466H26.399C25.0254 0.777466 23.9093 1.83525 23.9093 3.09646V18.3123C23.9093 19.6142 25.0254 20.672 26.399 20.672H30.0906V27.7103C30.0906 28.8494 31.6359 29.3377 32.3227 28.4019L38.7185 20.7126H51.081V20.672Z"/>
<path d="M14.4228 36.7828C25.7551 47.5641 36.6152 49.8424 40.6073 50.0458C43.1828 46.5063 44.2559 43.5771 44.9856 40.9326C42.2384 38.3695 38.2034 35.7657 34.5119 34.3011L30.1335 38.4509C28.6311 38.0847 24.5532 36.4574 19.6597 31.8194C14.7662 27.1814 13.0922 23.2757 12.6629 21.8925L17.0413 17.7427C15.496 14.2439 12.7488 10.4196 10.0445 7.8158C7.29724 8.50743 4.20662 9.52453 0.429199 11.9249C0.643826 15.7492 3.04764 26.0016 14.4228 36.7828Z"/>
</mask>
<path d="M30.0906 8.3158H47.3895V7.3158H30.0906V8.3158ZM30.0906 12.9945H42.4531V11.9945H30.0906V12.9945ZM51.081 20.672V19.672H50.081V20.672H51.081ZM30.0906 20.672H31.0906V19.672H30.0906V20.672ZM32.3227 28.4019L31.5539 27.7624L31.5345 27.7858L31.5165 27.8102L32.3227 28.4019ZM38.7185 20.7126V19.7126H38.2496L37.9497 20.0732L38.7185 20.7126ZM51.081 20.7126V21.7126H52.081V20.7126H51.081ZM14.4228 36.7828L15.1121 36.0583L15.1107 36.057L14.4228 36.7828ZM40.6073 50.0458L40.5564 51.0445L41.0972 51.0721L41.4158 50.6342L40.6073 50.0458ZM44.9856 40.9326L45.9496 41.1986L46.1107 40.6147L45.6678 40.2014L44.9856 40.9326ZM34.5119 34.3011L34.8806 33.3716L34.2873 33.1362L33.824 33.5753L34.5119 34.3011ZM30.1335 38.4509L29.8967 39.4224L30.426 39.5514L30.8214 39.1767L30.1335 38.4509ZM19.6597 31.8194L18.9718 32.5452L19.6597 31.8194ZM12.6629 21.8925L11.975 21.1667L11.5234 21.5947L11.7078 22.1889L12.6629 21.8925ZM17.0413 17.7427L17.7292 18.4685L18.2408 17.9836L17.956 17.3387L17.0413 17.7427ZM10.0445 7.8158L10.7381 7.09544L10.3384 6.71061L9.80032 6.84606L10.0445 7.8158ZM0.429199 11.9249L-0.107126 11.0809L-0.60209 11.3954L-0.56923 11.9809L0.429199 11.9249ZM51.081 21.672C52.9557 21.672 54.5707 20.2163 54.5707 18.3123H52.5707C52.5707 19.012 51.9536 19.672 51.081 19.672V21.672ZM54.5707 18.3123V3.09646H52.5707V18.3123H54.5707ZM54.5707 3.09646C54.5707 1.17051 52.9323 -0.222534 51.081 -0.222534V1.77747C51.977 1.77747 52.5707 2.41862 52.5707 3.09646H54.5707ZM51.081 -0.222534H26.399V1.77747H51.081V-0.222534ZM26.399 -0.222534C24.5359 -0.222534 22.9093 1.22218 22.9093 3.09646H24.9093C24.9093 2.44832 25.5149 1.77747 26.399 1.77747V-0.222534ZM22.9093 3.09646V18.3123H24.9093V3.09646H22.9093ZM22.9093 18.3123C22.9093 20.2163 24.5243 21.672 26.399 21.672V19.672C25.5265 19.672 24.9093 19.012 24.9093 18.3123H22.9093ZM26.399 21.672H30.0906V19.672H26.399V21.672ZM29.0906 20.672V27.7103H31.0906V20.672H29.0906ZM29.0906 27.7103C29.0906 28.7952 29.8407 29.5356 30.6509 29.7887C31.4619 30.042 32.4923 29.8608 33.1288 28.9936L31.5165 27.8102C31.4813 27.8582 31.4472 27.8766 31.413 27.8863C31.3708 27.8982 31.3113 27.8997 31.2472 27.8797C31.1829 27.8596 31.1402 27.8261 31.1186 27.7996C31.1029 27.7803 31.0906 27.7573 31.0906 27.7103H29.0906ZM33.0915 29.0414L39.4873 21.3521L37.9497 20.0732L31.5539 27.7624L33.0915 29.0414ZM38.7185 21.7126H51.081V19.7126H38.7185V21.7126ZM52.081 20.7126V20.672H50.081V20.7126H52.081ZM13.7336 37.5073C25.2476 48.4616 36.3378 50.8296 40.5564 51.0445L40.6581 49.0471C36.8927 48.8552 26.2626 46.6666 15.1121 36.0583L13.7336 37.5073ZM41.4158 50.6342C44.08 46.9728 45.1971 43.9255 45.9496 41.1986L44.0217 40.6666C43.3147 43.2286 42.2855 46.0398 39.7987 49.4575L41.4158 50.6342ZM45.6678 40.2014C42.832 37.5557 38.6914 34.8835 34.8806 33.3716L34.1431 35.2306C37.7154 36.6479 41.6448 39.1833 44.3035 41.6638L45.6678 40.2014ZM33.824 33.5753L29.4456 37.7251L30.8214 39.1767L35.1998 35.0269L33.824 33.5753ZM30.3703 37.4793C29.0596 37.1599 25.1327 35.6288 20.3476 31.0936L18.9718 32.5452C23.9737 37.2859 28.2026 39.0095 29.8967 39.4224L30.3703 37.4793ZM20.3476 31.0936C15.5751 26.5703 13.9951 22.8113 13.618 21.5961L11.7078 22.1889C12.1892 23.7402 13.9574 27.7925 18.9718 32.5452L20.3476 31.0936ZM13.3508 22.6183L17.7292 18.4685L16.3534 17.0169L11.975 21.1667L13.3508 22.6183ZM17.956 17.3387C16.3548 13.7133 13.5296 9.78321 10.7381 7.09544L9.35087 8.53617C11.9679 11.0559 14.6371 14.7745 16.1265 18.1467L17.956 17.3387ZM9.80032 6.84606C6.98171 7.55566 3.78458 8.6079 -0.107126 11.0809L0.965525 12.7689C4.62866 10.4412 7.61278 9.4592 10.2886 8.78554L9.80032 6.84606ZM-0.56923 11.9809C-0.340086 16.0639 2.17751 26.5546 13.7349 37.5086L15.1107 36.057C3.91777 25.4485 1.62774 15.4345 1.42763 11.8689L-0.56923 11.9809Z" fill="#189CD9" mask="url(#path-1-inside-1)"/>
</svg>
