<?xml version="1.0" encoding="utf-8"?>
<!-- Generator: Adobe Illustrator 23.0.1, SVG Export Plug-In . SVG Version: 6.00 Build 0)  -->
<svg version="1.1" id="Layer_2" xmlns="http://www.w3.org/2000/svg" xmlns:xlink="http://www.w3.org/1999/xlink" x="0px" y="0px"
	 viewBox="0 0 54 51" style="enable-background:new 0 0 54 51;" xml:space="preserve">
<style type="text/css">
	.st0{fill:none;stroke:#189CD9;stroke-miterlimit:10;}
</style>
<path class="st0" d="M50.4,20.3c1.3,0,2.4-1,2.4-2.3V3.1c0-1.3-1.1-2.3-2.4-2.3h-24c-1.3,0-2.4,1-2.4,2.3V18c0,1.3,1.1,2.3,2.4,2.3
	h3.6v6.9c0,1.1,1.5,1.6,2.2,0.7l6.2-7.6H50.4z"/>
<line class="st0" x1="30.1" y1="7.7" x2="46.8" y2="7.7"/>
<line class="st0" x1="30.1" y1="12.3" x2="42" y2="12.3"/>
<path class="st0" d="M14.3,37.3c11,10.7,21.4,12.9,25.2,13.1c2.4-3.6,3.4-6.6,4.1-9.2c-2.7-2.5-6.6-5.1-10.1-6.6l-4.1,4.2
	c-1.4-0.4-5.4-1.9-10.1-6.6c-4.7-4.6-6.4-8.5-6.8-10l4.1-4.2c-1.5-3.5-4.2-7.3-6.8-10c-2.6,0.7-5.6,1.8-9.1,4.3
	C0.9,16.2,3.3,26.6,14.3,37.3z"/>
</svg>
