<svg width="61" height="56" viewBox="0 0 61 56" fill="none" xmlns="http://www.w3.org/2000/svg">
<path d="M40.1316 37.6333H40.6316V36.6333H40.1316V37.6333ZM0.668854 37.1333H0.168854C0.168854 37.4094 0.392711 37.6333 0.668854 37.6333L0.668854 37.1333ZM0.668854 0.666626V0.166626C0.392711 0.166626 0.168854 0.390484 0.168854 0.666626L0.668854 0.666626ZM60.3311 0.666626H60.8311C60.8311 0.390484 60.6073 0.166626 60.3311 0.166626V0.666626ZM60.3311 37.1333V37.6333C60.6073 37.6333 60.8311 37.4094 60.8311 37.1333H60.3311ZM59.3947 36.6333H58.8947V37.6333H59.3947V36.6333ZM20.8684 44.2999C20.5923 44.2999 20.3684 44.5238 20.3684 44.7999C20.3684 45.0761 20.5923 45.2999 20.8684 45.2999V44.2999ZM40.1316 45.2999C40.4077 45.2999 40.6316 45.0761 40.6316 44.7999C40.6316 44.5238 40.4077 44.2999 40.1316 44.2999V45.2999ZM26.1842 40.9333V40.4333H25.1842V40.9333H26.1842ZM25.1842 43.7999V44.2999H26.1842V43.7999H25.1842ZM35.8158 40.9333V40.4333H34.8158V40.9333H35.8158ZM34.8158 43.7999V44.2999H35.8158V43.7999H34.8158ZM23.3081 13.1333C23.3081 12.8571 23.0842 12.6333 22.8081 12.6333C22.532 12.6333 22.3081 12.8571 22.3081 13.1333H23.3081ZM22.3081 24.6666C22.3081 24.9428 22.532 25.1666 22.8081 25.1666C23.0842 25.1666 23.3081 24.9428 23.3081 24.6666H22.3081ZM17.9923 12.6333C17.7162 12.6333 17.4923 12.8571 17.4923 13.1333C17.4923 13.4094 17.7162 13.6333 17.9923 13.6333V12.6333ZM27.6239 13.6333C27.9 13.6333 28.1239 13.4094 28.1239 13.1333C28.1239 12.8571 27.9 12.6333 27.6239 12.6333V13.6333ZM33.8375 12.9406C33.7311 12.6858 33.4383 12.5655 33.1834 12.6719C32.9286 12.7783 32.8083 13.0711 32.9147 13.3259L33.8375 12.9406ZM38.1919 24.6666L37.7305 24.8593C37.8082 25.0454 37.9902 25.1666 38.1919 25.1666C38.3936 25.1666 38.5756 25.0454 38.6533 24.8593L38.1919 24.6666ZM43.4691 13.3259C43.5755 13.0711 43.4552 12.7783 43.2003 12.6719C42.9455 12.5655 42.6527 12.6858 42.5463 12.9406L43.4691 13.3259ZM43.9441 28.4666V27.9666C43.6679 27.9666 43.4441 28.1905 43.4441 28.4666H43.9441ZM55.5153 28.4666H56.0153C56.0153 28.1905 55.7915 27.9666 55.5153 27.9666V28.4666ZM55.5153 55.3333V55.8333C55.7915 55.8333 56.0153 55.6094 56.0153 55.3333H55.5153ZM43.9441 55.3333H43.4441C43.4441 55.6094 43.6679 55.8333 43.9441 55.8333V55.3333ZM15.1283 40.5594H15.6283C15.6283 40.2832 15.4044 40.0594 15.1283 40.0594V40.5594ZM15.1283 46.6927V47.1927C15.4044 47.1927 15.6283 46.9688 15.6283 46.6927H15.1283ZM0.680892 46.6927H0.180892C0.180892 46.9688 0.40475 47.1927 0.680892 47.1927V46.6927ZM0.680892 40.5594V40.0594C0.40475 40.0594 0.180892 40.2832 0.180892 40.5594H0.680892ZM40.1316 36.6333H0.668854V37.6333H40.1316V36.6333ZM1.16885 37.1333V0.666626H0.168854V37.1333H1.16885ZM0.668854 1.16663H60.3311V0.166626H0.668854V1.16663ZM59.8311 0.666626V37.1333H60.8311V0.666626H59.8311ZM60.3311 36.6333H59.3947V37.6333H60.3311V36.6333ZM20.8684 45.2999H40.1316V44.2999H20.8684V45.2999ZM25.1842 40.9333V43.7999H26.1842V40.9333H25.1842ZM34.8158 40.9333V43.7999H35.8158V40.9333H34.8158ZM22.3081 13.1333V24.6666H23.3081V13.1333H22.3081ZM17.9923 13.6333H27.6239V12.6333H17.9923V13.6333ZM32.9147 13.3259L37.7305 24.8593L38.6533 24.474L33.8375 12.9406L32.9147 13.3259ZM38.6533 24.8593L43.4691 13.3259L42.5463 12.9406L37.7305 24.474L38.6533 24.8593ZM43.9441 28.9666H55.5153V27.9666H43.9441V28.9666ZM55.0153 28.4666V55.3333H56.0153V28.4666H55.0153ZM55.5153 54.8333H43.9441V55.8333H55.5153V54.8333ZM44.4441 55.3333V28.4666H43.4441V55.3333H44.4441ZM46.8871 41.4333H48.7599V40.4333H46.8871V41.4333ZM50.6996 41.4333H52.6392V40.4333H50.6996V41.4333ZM46.8871 45.2999H48.7599V44.2999H46.8871V45.2999ZM50.6996 45.2999H52.6392V44.2999H50.6996V45.2999ZM46.8871 49.1H48.7599V48.1H46.8871V49.1ZM50.6996 49.1H52.6392V48.1H50.6996V49.1ZM14.6283 40.5594V46.6927H15.6283V40.5594H14.6283ZM15.1283 46.1927H0.680892V47.1927H15.1283V46.1927ZM1.18089 46.6927V40.5594H0.180892V46.6927H1.18089ZM0.680892 41.0594H15.1283V40.0594H0.680892V41.0594ZM3.7807 42.0666V43.1333H4.7807V42.0666H3.7807Z" fill="#189CD9"/>
</svg>
