<svg width="24" height="20" viewBox="0 0 24 20" fill="none" xmlns="http://www.w3.org/2000/svg">
<path d="M7.9844 20C16.7958 20 21.6173 12.2993 21.6173 5.63261C21.6173 5.41597 21.6173 5.19933 21.608 4.98268C22.5424 4.26382 23.3553 3.37755 24 2.37312C23.1217 2.77686 22.1966 3.05259 21.2435 3.17076C22.2433 2.54052 22.9909 1.54593 23.3459 0.374091C22.4022 0.964936 21.3744 1.37853 20.2998 1.59517C18.4871 -0.443245 15.4503 -0.541719 13.516 1.37853C12.2733 2.60946 11.7407 4.45092 12.1331 6.20376C8.29275 5.99697 4.69531 4.07672 2.26587 0.925547C0.995087 3.22984 1.63982 6.18407 3.75157 7.66118C2.98536 7.64149 2.24718 7.42484 1.57441 7.03095C1.57441 7.05064 1.57441 7.07034 1.57441 7.09003C1.57441 9.4928 3.18158 11.5608 5.42414 12.0433C4.714 12.2501 3.97582 12.2796 3.25633 12.1319C3.88238 14.19 5.68577 15.5982 7.73211 15.6376C6.0315 17.0458 3.93845 17.804 1.77998 17.804C1.39688 17.804 1.01377 17.7745 0.640015 17.7351C2.83585 19.2221 5.37742 20 7.9844 20Z" fill="white"/>
</svg>
